<?xml version="1.0" encoding="utf-8"?>
<!-- Generator: Adobe Illustrator 19.1.0, SVG Export Plug-In . SVG Version: 6.00 Build 0)  -->
<svg version="1.1" id="Layer_1" xmlns="http://www.w3.org/2000/svg" xmlns:xlink="http://www.w3.org/1999/xlink" x="0px" y="0px"
	 viewBox="0 0 300 250" style="enable-background:new 0 0 300 250;" xml:space="preserve">
<style type="text/css">
	.st0{display:none;}
	.st1{fill:#010101;}
	.st2{fill:none;stroke:#010101;}
	.st3{fill:#E33426;}
	.st4{fill:#FFFFFF;stroke:#010101;}
	.st5{fill:none;}
	.st6{fill:#FFFFFF;}
	.st7{fill:#54813A;}
</style>
<rect class="st0" width="300" height="300"/>
<g>
	<g>
		<path class="st1" d="M266.1,52.8c34.8,46.4,12,116.5-51,156.6s-142.2,35-177-11.4S26.1,81.5,89,41.4S231.3,6.4,266.1,52.8z"/>
		<path class="st2" d="M266.1,52.8c34.8,46.4,12,116.5-51,156.6s-142.2,35-177-11.4S26.1,81.5,89,41.4S231.3,6.4,266.1,52.8z"/>
	</g>
	<g>
		<path class="st3" d="M264.3,51c34.8,46.4,12,116.5-51,156.6s-142.2,35-177-11.4s-12-116.5,51-156.6S229.5,4.6,264.3,51z"/>
		<path class="st2" d="M264.3,51c34.8,46.4,12,116.5-51,156.6s-142.2,35-177-11.4s-12-116.5,51-156.6S229.5,4.6,264.3,51z"/>
	</g>
</g>
<path class="st4" d="M234.1,70.2c25.6,34.1,8.8,85.7-37.5,115.2S92.1,211.1,66.5,177s-8.8-85.7,37.5-115.2S208.5,36.1,234.1,70.2z"
	/>
<g>
	<g>
		<path class="st5" d="M30.1,184.6c37.9,46.6,118.2,54.2,179.4,17.1s80-104.9,42.1-151.5S133.4-4,72.3,33.1S-7.8,138,30.1,184.6z"/>
		<path class="st6" d="M107.8,224.2l-2.5-9.7c-0.2-0.7-0.4-1.2-0.6-1.4c-0.2-0.2-0.5-0.4-1-0.4l-0.3,0l0.1-1.4l6.1,0.5l-0.1,1.4
			l-0.7-0.1c-0.3,0-0.5,0-0.7,0.1s-0.2,0.2-0.2,0.4c0,0.1,0,0.1,0,0.2c0,0.1,0,0.1,0,0.2l1.9,7.3l2.9-6.3c-0.1-0.6-0.3-1-0.5-1.3
			c-0.2-0.3-0.6-0.4-1-0.5l-0.5,0l0.1-1.4l6.3,0.5l-0.1,1.4l-0.8-0.1c-0.4,0-0.6,0-0.8,0.1c-0.2,0.1-0.2,0.2-0.2,0.4
			c0,0.1,0,0.2,0.1,0.4c0,0,0,0.1,0,0.1l2.1,7.1l2.5-6.2c0.1-0.2,0.1-0.3,0.2-0.5c0-0.2,0.1-0.3,0.1-0.4c0-0.2-0.1-0.3-0.3-0.5
			c-0.2-0.1-0.5-0.2-0.9-0.2l-0.7-0.1l0.1-1.4l5.9,0.5l-0.1,1.4l-0.5,0c-0.4,0-0.7,0-0.9,0.2c-0.2,0.2-0.4,0.5-0.6,0.9l-3.8,9.6
			l-2.8-0.2l-1.9-6.9l-3,6.5L107.8,224.2z"/>
		<path class="st6" d="M130.3,225.2l-4.3-9.3c-0.3-0.7-0.6-1.2-0.9-1.3c-0.3-0.2-0.6-0.3-1-0.2l-0.3,0l-0.2-1.4l6.1-0.4l0.2,1.4
			l-0.7,0c-0.3,0-0.5,0.1-0.6,0.2c-0.1,0.1-0.2,0.3-0.1,0.5c0,0.1,0,0.1,0,0.2c0,0.1,0,0.1,0.1,0.2l3.2,7l1.7-6.7
			c-0.2-0.6-0.4-1-0.7-1.2c-0.3-0.2-0.7-0.3-1.1-0.3l-0.5,0l-0.2-1.4l6.3-0.4l0.2,1.4l-0.8,0c-0.4,0-0.6,0.1-0.8,0.2
			c-0.1,0.1-0.2,0.2-0.2,0.4c0,0.1,0.1,0.2,0.1,0.4c0,0,0,0.1,0,0.1l3.3,6.7l1.3-6.5c0-0.2,0.1-0.4,0.1-0.5c0-0.2,0-0.3,0-0.4
			c0-0.2-0.1-0.3-0.3-0.4c-0.2-0.1-0.5-0.1-0.9-0.1l-0.7,0l-0.2-1.4l5.9-0.4l0.2,1.4l-0.5,0c-0.4,0-0.6,0.1-0.8,0.4
			c-0.2,0.2-0.3,0.6-0.4,1l-1.9,10.1l-2.8,0.2l-3.1-6.6L133,225L130.3,225.2z"/>
		<path class="st6" d="M152.4,223l-5.8-8.7c-0.4-0.7-0.8-1.1-1.1-1.2c-0.3-0.2-0.6-0.2-1-0.1l-0.3,0.1l-0.4-1.4l5.9-1.2l0.4,1.4
			l-0.7,0.1c-0.3,0.1-0.5,0.1-0.6,0.3c-0.1,0.1-0.1,0.3-0.1,0.5c0,0.1,0,0.1,0.1,0.2c0,0.1,0.1,0.1,0.1,0.2l4.3,6.5l0.5-6.8
			c-0.3-0.5-0.6-0.9-0.9-1.1c-0.3-0.2-0.7-0.2-1.1-0.2l-0.5,0.1l-0.4-1.4l6.1-1.2l0.4,1.4l-0.8,0.2c-0.4,0.1-0.6,0.2-0.7,0.3
			c-0.1,0.1-0.2,0.2-0.1,0.4c0,0.1,0.1,0.2,0.2,0.4c0,0,0,0.1,0.1,0.1l4.4,6.3l0.1-6.7c0-0.2,0-0.4,0-0.5c0-0.2,0-0.3-0.1-0.4
			c-0.1-0.2-0.2-0.3-0.4-0.4c-0.2-0.1-0.5,0-0.9,0l-0.7,0.1l-0.4-1.4l5.7-1.1l0.4,1.4l-0.5,0.1c-0.3,0.1-0.6,0.2-0.8,0.5
			c-0.2,0.2-0.2,0.6-0.3,1.1l-0.1,10.3l-2.7,0.6l-4.2-6.2l-0.4,7.1L152.4,223z"/>
		<path class="st6" d="M165.8,219c-0.1-0.4-0.1-0.7,0.1-1.1c0.2-0.3,0.5-0.6,0.9-0.7c0.4-0.1,0.8-0.1,1.2,0.1
			c0.4,0.2,0.7,0.5,0.8,0.8c0.2,0.4,0.1,0.7,0,1.1c-0.2,0.3-0.5,0.6-0.9,0.7c-0.4,0.1-0.8,0.1-1.2-0.1
			C166.2,219.6,165.9,219.3,165.8,219z"/>
		<path class="st6" d="M174.7,216.2c0.3,0.1,0.6,0.1,0.9,0.1c0.3,0,0.6-0.1,0.8-0.2c1-0.3,1.5-0.9,1.7-1.7c0.1-0.8-0.1-1.9-0.8-3.3
			c-0.3,0.5-0.7,0.9-1.1,1.3c-0.4,0.3-0.9,0.6-1.5,0.8c-1.2,0.4-2.4,0.4-3.5,0c-1.1-0.4-1.9-1.1-2.4-2c-0.5-1.1-0.5-2.2,0-3.2
			c0.6-1,1.6-1.8,3.2-2.3c1.7-0.6,3.2-0.5,4.6,0.1c1.4,0.6,2.5,1.8,3.3,3.6c0.9,1.8,1.1,3.4,0.5,4.8c-0.5,1.4-1.7,2.4-3.5,3
			c-1.1,0.4-2.1,0.5-3.1,0.3c-0.9-0.2-1.6-0.6-1.9-1.2c-0.2-0.4-0.2-0.8,0-1.1c0.2-0.4,0.5-0.6,1-0.8c0.4-0.1,0.8-0.2,1.2,0
			c0.4,0.1,0.6,0.4,0.8,0.7c0.1,0.2,0.1,0.5,0.1,0.7C175.1,215.8,174.9,216,174.7,216.2z M175.9,208.5c-0.4-0.7-0.8-1.2-1.4-1.5
			c-0.6-0.3-1.2-0.3-1.9,0c-0.7,0.2-1.1,0.6-1.3,1.1c-0.2,0.5-0.1,1.1,0.2,1.8c0.3,0.7,0.8,1.2,1.4,1.4c0.6,0.2,1.2,0.2,1.9,0
			c0.6-0.2,1-0.6,1.2-1.1C176.2,209.7,176.2,209.1,175.9,208.5z"/>
		<path class="st6" d="M187.1,213l-0.7-1.2l0.8-0.4c0.6-0.3,1-0.5,1.1-0.7c0.1-0.2,0-0.5-0.2-0.9l-3.3-5.4l-2.3,1l-0.7-1.2
			c0.9-0.4,1.5-0.9,1.9-1.3c0.4-0.5,0.5-1,0.5-1.7l1.5-0.7l5,8.2c0.3,0.4,0.5,0.7,0.7,0.7c0.2,0.1,0.6-0.1,1.2-0.3l1-0.4l0.7,1.2
			L187.1,213z"/>
		<path class="st6" d="M199.5,207.4l-0.8-1.2l0.8-0.4c0.6-0.3,1-0.6,1-0.8c0.1-0.2,0-0.5-0.3-0.9l-3.8-5.2l-2.2,1.2l-0.8-1.1
			c0.8-0.5,1.4-1,1.7-1.5c0.3-0.5,0.4-1.1,0.3-1.7l1.4-0.8l5.8,7.9c0.3,0.4,0.5,0.6,0.8,0.7c0.2,0,0.6-0.1,1.2-0.4l0.9-0.5l0.9,1.2
			L199.5,207.4z"/>
		<path class="st6" d="M211.4,197.2c0.4,0.4,0.7,0.6,0.9,0.7c0.2,0,0.6-0.1,1.1-0.5l0.8-0.5l1,1.2l-6,4l-1-1.2l0.7-0.4
			c0.5-0.3,0.8-0.6,0.8-0.8c0-0.2-0.1-0.5-0.5-0.9l-5.3-6c-0.4-0.4-0.7-0.6-0.9-0.7c-0.2,0-0.6,0.1-1.1,0.4l-0.7,0.4l-1-1.2l5.9-3.9
			c1.5-1,2.9-1.5,4.1-1.6c1.2,0,2.2,0.4,3,1.3c0.4,0.5,0.7,1,0.8,1.5c0.1,0.5,0.1,1-0.1,1.6c-0.1,0.4-0.5,0.8-0.9,1.2
			c-0.5,0.4-1.2,1-2.2,1.6l-1.6,1L211.4,197.2z M208.2,193.6l1.1-0.7c1-0.7,1.6-1.3,1.8-1.8c0.2-0.5,0-1.1-0.5-1.7
			c-0.5-0.6-1.1-0.9-1.7-0.9c-0.6,0-1.5,0.4-2.6,1.2l-1,0.7L208.2,193.6z"/>
		<path class="st6" d="M221.1,194l-1.1-1.1l0.7-0.5c0.5-0.4,0.7-0.6,0.7-0.8c0-0.2-0.2-0.5-0.6-0.9L215,185
			c-0.4-0.4-0.7-0.6-0.9-0.6c-0.2,0-0.6,0.2-1,0.5l-0.7,0.5l-1.1-1.1l5.7-4.4l1.1,1.1l-0.7,0.5c-0.5,0.4-0.7,0.6-0.7,0.8
			c0,0.2,0.2,0.5,0.6,0.9l5.8,5.7c0.4,0.4,0.7,0.6,0.9,0.6c0.2,0,0.6-0.2,1-0.5l0.7-0.5l1.1,1.1L221.1,194z"/>
		<path class="st6" d="M228.4,188.4l-1.3-1.1l-2.3-12.2l-1.7,1.5c-0.7,0.7-1.2,1.2-1.4,1.6c-0.2,0.4-0.2,0.8-0.1,1.2
			c0.1,0.4,0.3,0.7,0.6,1.1c0.3,0.4,0.8,0.8,1.3,1.3l-1.1,1l-4.4-3.8l7.9-7.2l1.4,1.2l2.2,12.1l1.6-1.4c0.8-0.7,1.3-1.3,1.5-1.7
			c0.3-0.5,0.3-0.9,0.2-1.3c-0.1-0.4-0.4-0.8-0.7-1.3c-0.4-0.5-0.8-1-1.4-1.6l1.1-1l4.8,4.1L228.4,188.4z"/>
		<path class="st6" d="M238.4,179.1l-1.4-1l-3.6-12l-1.5,1.6c-0.7,0.7-1.1,1.3-1.2,1.7c-0.1,0.4-0.1,0.8,0,1.2
			c0.2,0.3,0.4,0.7,0.8,1.1c0.4,0.4,0.8,0.8,1.5,1.2l-1,1.1l-4.8-3.4l7.1-7.9l1.5,1l3.5,11.9l1.4-1.5c0.7-0.8,1.1-1.4,1.3-1.9
			c0.2-0.5,0.2-0.9,0-1.3c-0.2-0.4-0.5-0.8-0.9-1.2c-0.4-0.4-0.9-0.9-1.6-1.4l1-1.1l5.2,3.7L238.4,179.1z"/>
		<path class="st6" d="M246.9,169.7l-1.4-0.8l0.2-0.3c0.3-0.4,0.4-0.7,0.4-1c0-0.3-0.2-0.6-0.6-1l-7.6-8.5l1.6-2.2l11.9,2.5
			c0.7,0.1,1.2,0.2,1.4,0.1c0.2-0.1,0.5-0.3,0.7-0.7l0.2-0.3l1.4,0.8l-3.9,5.4l-1.4-0.8l0.6-0.8c0.2-0.3,0.4-0.6,0.4-0.7
			c0-0.2-0.1-0.3-0.2-0.4c-0.1,0-0.1-0.1-0.2-0.1c-0.1,0-0.2-0.1-0.5-0.1l-1.8-0.4l-2.5,3.4l1.2,1.3c0,0,0.1,0.1,0.1,0.2
			c0.1,0.1,0.2,0.2,0.3,0.3c0.2,0.1,0.3,0.1,0.4,0c0.1-0.1,0.3-0.3,0.6-0.6l0.6-0.8l1.4,0.8L246.9,169.7z M246.4,159.8l-5.2-1.1
			l3.4,3.7L246.4,159.8z"/>
		<path class="st6" d="M255.8,157.1l-1.5-0.7l0.4-0.7c0.3-0.5,0.4-0.8,0.3-1c-0.1-0.2-0.4-0.4-0.9-0.6l-7.7-3.4
			c-0.5-0.2-0.9-0.3-1.1-0.3c-0.2,0.1-0.4,0.3-0.7,0.8l-0.4,0.7l-1.5-0.7l3.5-6.5c0.8-1.4,1.6-2.3,2.5-2.8c0.9-0.4,1.9-0.4,3,0.1
			c0.8,0.3,1.3,0.8,1.5,1.4c0.3,0.6,0.3,1.3,0.1,2.2c0.7-0.8,1.5-1.3,2.3-1.5c0.8-0.2,1.7-0.1,2.6,0.3c1.3,0.6,2,1.3,2.1,2.3
			c0.1,1-0.3,2.4-1.2,4.2L255.8,157.1z M250.5,149.6l0.9-1.6c0.5-0.9,0.7-1.6,0.6-2.2c-0.1-0.5-0.5-1-1.2-1.3
			c-0.7-0.3-1.3-0.4-1.8-0.2c-0.5,0.2-1,0.8-1.5,1.6l-1,1.8L250.5,149.6z M256.5,152.3l1-1.8c0.5-1,0.7-1.7,0.6-2.3
			c-0.1-0.6-0.6-1-1.4-1.4c-0.8-0.4-1.5-0.4-2.1-0.1s-1.1,0.9-1.7,1.9l-0.9,1.7L256.5,152.3z"/>
		<path class="st6" d="M262.4,144.7l-1.6-0.5l0.1-0.4c0.2-0.4,0.2-0.8,0.1-1.1c-0.1-0.3-0.4-0.6-0.8-0.9l-9.6-6.8l0.9-2.5l12.1,0
			c0.7,0,1.2-0.1,1.3-0.2c0.2-0.1,0.4-0.4,0.5-0.8l0.1-0.4l1.6,0.5l-2.3,6.1l-1.6-0.5l0.4-1c0.1-0.4,0.2-0.7,0.2-0.8
			c0-0.2-0.1-0.3-0.3-0.3c-0.1,0-0.2,0-0.3-0.1s-0.3,0-0.5,0l-1.8,0l-1.5,3.9l1.5,1.1c0,0,0.1,0.1,0.2,0.1c0.2,0.1,0.3,0.2,0.4,0.2
			c0.2,0.1,0.3,0,0.4,0c0.1-0.1,0.2-0.3,0.4-0.8l0.3-0.9l1.6,0.5L262.4,144.7z M259.3,135l-5.3,0l4.2,2.9L259.3,135z"/>
		<path class="st6" d="M265.8,125.2c0.6,0.1,0.9,0.1,1.1,0c0.2-0.1,0.3-0.4,0.4-1l0.2-0.9l1.6,0.3l-1.4,6.6l-1.6-0.3l0.2-0.7
			c0.1-0.5,0.1-0.9,0-1.1c-0.1-0.2-0.5-0.3-1-0.4l-8.3-1.7c-0.6-0.1-1-0.1-1.1,0c-0.2,0.1-0.3,0.4-0.4,1l-0.2,0.7l-1.6-0.3l1.6-7.3
			c0.3-1.5,0.8-2.6,1.6-3.3c0.7-0.6,1.6-0.8,2.8-0.6c1,0.2,1.8,0.7,2.2,1.4c0.5,0.7,0.7,1.7,0.6,2.9c0.3-0.8,0.8-1.4,1.2-1.7
			c0.5-0.3,1.3-0.3,2.3-0.2l1.3,0.2c0.5,0.1,0.8,0.1,1,0c0.2,0,0.3-0.2,0.3-0.3c0.1-0.4-0.7-0.7-2.2-1c0,0,0,0-0.1,0l0.2-1.2
			c0.1,0,0.2,0,0.3,0c0.1,0,0.2,0,0.4,0.1c1.3,0.3,2.2,0.7,2.7,1.2c0.5,0.5,0.7,1.2,0.5,2.1c-0.2,0.7-0.5,1.3-1.1,1.6
			c-0.5,0.3-1.2,0.4-2.1,0.3l-1.7-0.3c-1.1-0.2-1.9-0.1-2.4,0.2c-0.5,0.3-0.8,1-1.1,2.1l-0.2,0.9L265.8,125.2z M260.4,124.1l0.5-2.2
			c0.2-0.9,0.1-1.5-0.1-2c-0.3-0.5-0.8-0.8-1.5-0.9c-0.8-0.2-1.3-0.1-1.8,0.2c-0.4,0.3-0.7,1-0.9,1.9l-0.4,2.1L260.4,124.1z"/>
		<path class="st6" d="M269.4,114c-0.4,0-0.8-0.2-1.1-0.5c-0.3-0.3-0.4-0.7-0.4-1c0-0.4,0.2-0.7,0.5-0.9c0.3-0.2,0.7-0.3,1.2-0.3
			c0.5,0.1,0.8,0.2,1.1,0.5c0.3,0.3,0.4,0.6,0.4,1c0,0.4-0.2,0.7-0.5,0.9S269.9,114.1,269.4,114z"/>
		<path class="st6" d="M271.4,108.5l-1.6,0l0-0.7c0-0.6-0.1-0.9-0.3-1s-0.5-0.2-1.1-0.2l-8.5-0.1c-0.6,0-1,0.1-1.1,0.2
			c-0.1,0.1-0.2,0.5-0.2,1l0,0.7l-1.6,0l-0.3-6.8l1.6,0l0,0.9c0,0.6,0.1,0.9,0.3,1.1c0.2,0.1,0.5,0.2,1.1,0.2l3.2,0l-0.2-5.5l-3.2,0
			c-0.6,0-1,0.1-1.1,0.2s-0.2,0.5-0.2,1l0,0.9l-1.6,0l-0.3-6.8l1.6,0l0,0.7c0,0.6,0.1,0.9,0.3,1.1c0.2,0.1,0.5,0.2,1.1,0.2l8.5,0.1
			c0.6,0,0.9-0.1,1.1-0.2c0.1-0.1,0.2-0.5,0.2-1l0-0.7l1.6,0l0.3,6.8l-1.6,0l0-0.9c0-0.6-0.1-0.9-0.3-1c-0.2-0.1-0.5-0.2-1.1-0.2
			l-3.6,0l0.2,5.5l3.6,0c0.6,0,0.9-0.1,1.1-0.2c0.1-0.1,0.2-0.5,0.2-1l0-0.9l1.6,0L271.4,108.5z"/>
		<path class="st6" d="M258.8,91.3c-0.6,0.1-0.9,0.2-1,0.4c-0.1,0.2-0.1,0.5,0,1.1l0.1,0.6l-1.6,0.2l-1.5-6.5l1.6-0.2l0.2,0.8
			c0.1,0.6,0.3,0.9,0.5,1c0.2,0.1,0.6,0.1,1.1,0l6.7-1c1-0.1,1.6-0.4,2-0.9c0.3-0.5,0.4-1.2,0.2-2.1c-0.2-0.9-0.6-1.5-1.2-1.9
			c-0.6-0.4-1.3-0.5-2.2-0.4l-6.7,1c-0.6,0.1-0.9,0.2-1,0.4c-0.1,0.2-0.1,0.5,0,1.1l0.2,0.7l-1.6,0.2l-1.4-5.7l1.6-0.2l0.1,0.6
			c0.1,0.5,0.3,0.9,0.5,1c0.2,0.1,0.6,0.1,1.1,0l6.7-1c1.6-0.2,2.9,0,3.9,0.7c1,0.7,1.7,1.9,2.1,3.5c0.4,1.6,0.3,2.9-0.4,3.8
			c-0.6,0.9-1.7,1.5-3.3,1.8L258.8,91.3z"/>
	</g>
	<g>
		<path class="st5" d="M233.6,58c32.5,32.5,21.7,85.9-24.3,119.3s-109.7,34-142.2,1.5S45.4,92.9,91.4,59.5S201,25.5,233.6,58z"/>
		<path class="st6" d="M41.4,145.8c-2.4,0.1-4.4-0.4-6-1.4c-1.6-1.1-2.5-2.5-2.6-4.3c-0.2-1.8,0.5-3.3,1.9-4.5
			c1.4-1.2,3.3-1.8,5.7-1.9c2.4-0.1,4.4,0.4,6,1.5c1.6,1.1,2.5,2.5,2.6,4.3c0.2,1.8-0.5,3.3-1.9,4.5
			C45.7,145.1,43.8,145.7,41.4,145.8z M41.1,142.5c2.1-0.1,3.6-0.4,4.6-0.8c0.9-0.5,1.4-1.2,1.3-2.1c-0.1-0.9-0.6-1.6-1.7-2
			c-1-0.4-2.6-0.6-4.7-0.5c-2.1,0.1-3.6,0.4-4.6,0.9c-1,0.5-1.4,1.2-1.3,2.1c0.1,0.9,0.6,1.6,1.7,2C37.4,142.4,39,142.6,41.1,142.5z
			"/>
		<path class="st6" d="M35.3,122.6c-0.2,0.3-0.4,0.5-0.6,0.8c-0.1,0.3-0.2,0.5-0.2,0.8c-0.1,1.1,0.3,1.9,1.1,2.6
			c0.9,0.6,2.3,1.1,4.3,1.3c-0.4-0.6-0.7-1.1-0.8-1.7c-0.2-0.6-0.2-1.1-0.2-1.7c0.1-1.3,0.7-2.4,1.8-3.2c1-0.8,2.3-1.1,3.8-1
			c1.6,0.2,2.8,0.8,3.6,1.9c0.9,1.1,1.2,2.5,1,4.1c-0.2,1.8-1,3.2-2.5,4c-1.4,0.9-3.4,1.2-5.9,0.9c-2.6-0.3-4.6-1-6-2.3
			s-2-2.9-1.8-4.8c0.1-1.3,0.6-2.3,1.3-3c0.7-0.8,1.5-1.1,2.5-1c0.6,0.1,1,0.3,1.4,0.6c0.3,0.4,0.5,0.8,0.4,1.3
			c0,0.5-0.2,0.8-0.6,1.1s-0.8,0.4-1.2,0.3c-0.4,0-0.7-0.1-0.9-0.3C35.6,123.2,35.4,122.9,35.3,122.6z M43.9,128.3
			c1,0.1,1.8,0,2.4-0.4c0.6-0.4,0.9-0.9,1-1.6c0.1-0.7-0.1-1.3-0.6-1.7c-0.5-0.5-1.2-0.7-2.1-0.8c-1.1-0.1-1.9,0-2.5,0.4
			c-0.6,0.3-0.9,0.9-1,1.7c-0.1,0.7,0.1,1.3,0.6,1.7C42.2,127.9,42.9,128.2,43.9,128.3z"/>
		<path class="st6" d="M45.1,118.6l-2.6-0.5l1.4-5.7l2.6,0.5L45.1,118.6z"/>
		<path class="st6" d="M51.4,112.5c-0.1,0-0.2,0-0.3-0.1c-0.1,0-0.2-0.1-0.4-0.1c-1.3-0.4-2.3-0.9-3-1.7c-0.7-0.7-1.2-1.7-1.5-2.9
			c-0.1-0.5-0.3-1.1-0.4-1.9c-0.1-0.8-0.2-1.3-0.2-1.5c-0.1-0.5-0.4-0.9-0.7-1.3c-0.4-0.4-0.9-0.7-1.5-0.8c-0.8-0.2-1.6-0.2-2.3,0.2
			s-1.2,1-1.5,1.8c-0.2,0.6-0.3,1.2-0.1,1.7c0.2,0.5,0.5,1,1,1.4c0-0.1,0-0.2,0-0.4c0-0.1,0.1-0.2,0.1-0.4c0.2-0.4,0.4-0.7,0.8-0.9
			c0.4-0.2,0.8-0.2,1.3,0c0.6,0.2,1,0.5,1.2,0.9c0.2,0.4,0.3,0.9,0.1,1.3c-0.2,0.6-0.6,1-1.2,1.2c-0.6,0.2-1.3,0.2-2,0
			c-1.2-0.4-2.1-1.1-2.6-2.3c-0.5-1.2-0.5-2.4,0-3.8c0.6-1.6,1.5-2.7,2.7-3.4c1.2-0.7,2.6-0.8,4-0.4c1.2,0.4,2,0.9,2.5,1.7
			c0.5,0.8,0.6,2,0.5,3.6l0,0.1c-0.2,2.6,0.3,4.4,1.4,5.4c-0.1-0.3-0.2-0.7-0.2-1c0-0.3,0.1-0.6,0.2-1c0.2-0.5,0.6-1.2,1.2-2.1
			c0.6-0.9,1-1.5,1.1-1.8c0.2-0.6,0.2-1-0.2-1.4s-1-0.7-1.9-1.1l0.4-1.2l0.3,0.1c1.7,0.5,2.9,1.2,3.6,2c0.7,0.8,0.9,1.7,0.5,2.7
			c-0.1,0.4-0.4,0.8-0.7,1.2c-0.3,0.4-0.8,0.9-1.3,1.3c-0.1,0.1-0.3,0.2-0.5,0.4c-0.7,0.6-1.2,1.1-1.3,1.5c-0.1,0.3-0.1,0.6,0.1,0.9
			c0.2,0.3,0.6,0.5,1.1,0.7L51.4,112.5z"/>
		<path class="st6" d="M49,97.5c-2.2-0.9-3.7-2.2-4.5-3.8c-0.8-1.6-0.7-3.2,0.1-4.8c0.9-1.6,2.3-2.6,4.2-3c1.9-0.4,4-0.2,6.1,0.7
			c2.2,0.9,3.7,2.2,4.4,3.8c0.8,1.6,0.7,3.2-0.2,4.8c-0.9,1.6-2.3,2.6-4.2,3C53.2,98.7,51.2,98.5,49,97.5z M50.7,94.6
			c1.9,0.8,3.4,1.2,4.5,1.2c1.1,0,1.9-0.4,2.4-1.3c0.5-0.8,0.4-1.6-0.3-2.4c-0.7-0.8-2-1.6-3.9-2.4s-3.4-1.2-4.5-1.2
			c-1.1,0-1.9,0.4-2.4,1.3c-0.5,0.8-0.4,1.6,0.3,2.4S48.8,93.7,50.7,94.6z"/>
		<path class="st6" d="M58.8,86.6l-2.3-1.2l3.5-4.9l2.3,1.2L58.8,86.6z"/>
		<path class="st6" d="M68,79.2c0.3-0.1,0.6-0.2,0.9-0.4s0.5-0.4,0.7-0.6c0.7-0.8,0.9-1.7,0.5-2.6c-0.4-0.9-1.4-1.9-3-2.9
			c0,0.7-0.1,1.3-0.3,1.9c-0.2,0.6-0.5,1.1-1,1.6c-0.9,1-2,1.7-3.4,1.9c-1.4,0.2-2.6-0.1-3.7-0.8c-1.3-0.8-2-1.9-2.1-3.2
			s0.4-2.6,1.6-4c1.3-1.5,2.8-2.2,4.6-2.3c1.8-0.1,3.7,0.5,5.7,1.8c2.1,1.4,3.4,2.9,3.8,4.5c0.4,1.7,0,3.3-1.4,4.8
			c-0.8,1-1.8,1.6-2.8,1.9c-1,0.3-1.9,0.2-2.7-0.3c-0.5-0.3-0.7-0.7-0.8-1.1c-0.1-0.5,0.1-0.9,0.5-1.3c0.3-0.4,0.7-0.6,1.2-0.7
			c0.5-0.1,0.9,0,1.3,0.3c0.3,0.2,0.5,0.4,0.5,0.6C68.1,78.6,68.1,78.8,68,79.2z M63.9,70.8C63,70.2,62.2,70,61.5,70
			c-0.7,0-1.3,0.3-1.9,0.9c-0.5,0.6-0.7,1.2-0.5,1.8c0.2,0.6,0.6,1.1,1.4,1.7c0.8,0.5,1.6,0.8,2.3,0.7c0.7-0.1,1.4-0.4,1.9-1
			c0.5-0.5,0.6-1.1,0.4-1.7C65.1,71.8,64.6,71.2,63.9,70.8z"/>
		<path class="st6" d="M77.8,70.8l-1.3-1.1l0.8-0.7c0.6-0.5,0.9-0.9,0.9-1.2c0-0.2-0.2-0.6-0.7-0.9l-5.9-4.8L69.5,64l-1.3-1.1
			c0.8-0.8,1.3-1.5,1.5-2.1c0.2-0.6,0.1-1.3-0.2-2l1.4-1.3l9,7.3c0.5,0.4,0.8,0.5,1.1,0.5c0.3,0,0.6-0.3,1.2-0.8l0.9-0.8l1.3,1.1
			L77.8,70.8z"/>
		<path class="st6" d="M88.4,61.6l-1.2-1.2l0.9-0.6c0.7-0.5,1-0.8,1.1-1.1c0.1-0.2-0.1-0.6-0.5-1l-5.2-5.4L81,54l-1.2-1.2
			c0.9-0.7,1.5-1.3,1.8-1.9c0.3-0.6,0.3-1.3,0.1-2l1.6-1.1l8,8.2c0.4,0.4,0.7,0.6,1,0.6c0.3,0,0.7-0.2,1.3-0.6l1-0.7l1.2,1.2
			L88.4,61.6z"/>
		<path class="st6" d="M95.5,51.5l-1.6-1.9l5.5-3.3l1.6,1.9L95.5,51.5z"/>
		<path class="st6" d="M105.9,47.8c0.6,0.1,1.1,0.1,1.7,0c0.5-0.1,1.1-0.3,1.6-0.5c1-0.5,1.7-1.1,1.9-1.9c0.2-0.8,0-1.6-0.6-2.5
			c-0.6-0.9-1.4-1.5-2.3-1.8c-0.9-0.2-1.9-0.1-2.8,0.4c-0.5,0.3-1,0.6-1.3,1c-0.3,0.4-0.5,0.9-0.6,1.5l-1.5,0.7l-3.5-6.4
			c0.9-0.1,1.7-0.4,2.5-0.6c0.8-0.3,1.6-0.6,2.4-1c0.8-0.4,1.6-0.9,2.3-1.3c0.7-0.5,1.4-1,1.9-1.5c0.3,1.1,0.2,2-0.4,2.9
			c-0.6,0.9-1.7,1.7-3.2,2.5c-0.3,0.1-0.6,0.3-1,0.4c-0.4,0.2-0.9,0.3-1.5,0.5l1,1.8c0.4-0.5,0.8-0.9,1.3-1.3c0.5-0.4,1-0.7,1.5-1
			c1.5-0.8,3.1-1,4.6-0.7c1.5,0.3,2.7,1,3.5,2.2c0.9,1.4,1.2,2.7,0.7,4c-0.5,1.3-1.6,2.4-3.3,3.2c-1.6,0.8-3.1,1.1-4.6,1.1
			c-1.4-0.1-2.4-0.6-3.1-1.5c-0.3-0.5-0.4-1-0.3-1.5c0.1-0.5,0.5-0.9,1.1-1.2c0.5-0.3,1-0.3,1.6-0.3c0.5,0.1,0.9,0.3,1.2,0.7
			c0.3,0.4,0.4,0.9,0.2,1.3C106.8,47.2,106.5,47.6,105.9,47.8z"/>
		<path class="st6" d="M119.4,41.6c0.6,0.1,1.1,0.2,1.7,0.1c0.6,0,1.1-0.2,1.7-0.4c1.1-0.4,1.8-1,2.1-1.7c0.3-0.8,0.3-1.6-0.2-2.6
			c-0.5-1-1.2-1.6-2.1-2c-0.9-0.3-1.8-0.3-2.9,0.1c-0.6,0.2-1,0.5-1.4,0.9c-0.4,0.4-0.6,0.9-0.8,1.4l-1.6,0.5l-2.6-6.7
			c0.9-0.1,1.7-0.2,2.6-0.4c0.8-0.2,1.7-0.4,2.6-0.7c0.9-0.3,1.7-0.7,2.5-1.1c0.8-0.4,1.5-0.8,2.1-1.3c0.2,1.1-0.1,2-0.8,2.8
			c-0.7,0.8-1.9,1.5-3.5,2.1c-0.3,0.1-0.7,0.2-1.1,0.3c-0.4,0.1-0.9,0.2-1.6,0.4l0.8,1.9c0.5-0.5,1-0.9,1.5-1.2
			c0.5-0.3,1.1-0.6,1.7-0.8c1.6-0.6,3.2-0.7,4.7-0.3c1.5,0.4,2.6,1.3,3.2,2.5c0.8,1.4,0.8,2.8,0.2,4c-0.6,1.2-1.9,2.2-3.8,2.9
			c-1.7,0.6-3.3,0.8-4.7,0.6c-1.4-0.2-2.3-0.8-2.9-1.8c-0.3-0.5-0.3-1-0.1-1.5c0.2-0.5,0.6-0.8,1.2-1.1c0.6-0.2,1.1-0.2,1.6-0.1
			c0.5,0.1,0.9,0.4,1.1,0.8c0.2,0.5,0.3,0.9,0,1.3C120.4,41.1,120,41.4,119.4,41.6z"/>
		<path class="st6" d="M133.8,36.8c0.5,0.2,1.1,0.3,1.7,0.3c0.6,0,1.1,0,1.7-0.2c1.1-0.3,1.9-0.8,2.4-1.5c0.4-0.7,0.5-1.6,0.1-2.6
			c-0.4-1-1-1.8-1.8-2.2s-1.8-0.5-2.9-0.2c-0.6,0.1-1.1,0.4-1.5,0.7c-0.4,0.3-0.8,0.8-1,1.3l-1.7,0.3l-1.7-6.9c0.9,0,1.7,0,2.6-0.1
			c0.9-0.1,1.8-0.2,2.7-0.5c0.9-0.2,1.8-0.5,2.7-0.8s1.6-0.7,2.3-1.1c0,1.1-0.4,2-1.2,2.7c-0.8,0.7-2.1,1.3-3.8,1.7
			c-0.3,0.1-0.7,0.1-1.1,0.2c-0.4,0.1-1,0.1-1.6,0.2l0.5,2c0.5-0.4,1.1-0.7,1.7-1c0.6-0.3,1.2-0.5,1.8-0.6c1.7-0.4,3.3-0.3,4.7,0.2
			c1.4,0.6,2.4,1.5,2.8,2.8c0.5,1.5,0.4,2.8-0.4,4c-0.8,1.1-2.2,2-4.2,2.4c-1.8,0.4-3.4,0.5-4.7,0.1c-1.4-0.4-2.2-1.1-2.6-2.1
			c-0.2-0.5-0.1-1,0.1-1.5c0.3-0.5,0.7-0.8,1.4-0.9c0.6-0.1,1.1-0.1,1.6,0.1c0.5,0.2,0.8,0.5,0.9,0.9c0.2,0.5,0.1,0.9-0.1,1.3
			S134.4,36.6,133.8,36.8z"/>
		<path class="st6" d="M148.7,33.5c0.5,0.3,1,0.4,1.6,0.5c0.6,0.1,1.1,0.1,1.7,0c1.2-0.1,2-0.5,2.6-1.2c0.5-0.7,0.7-1.5,0.5-2.5
			c-0.2-1.1-0.7-1.8-1.4-2.3c-0.8-0.5-1.7-0.7-2.8-0.6c-0.6,0.1-1.2,0.3-1.6,0.5c-0.5,0.3-0.9,0.7-1.2,1.2l-1.7,0.1l-0.6-7
			c0.9,0.1,1.7,0.2,2.6,0.2c0.9,0,1.8,0,2.7-0.2c1-0.1,1.9-0.3,2.8-0.5c0.9-0.2,1.7-0.5,2.5-0.8c-0.1,1.1-0.7,1.9-1.6,2.6
			c-0.9,0.6-2.3,1.1-4.1,1.3c-0.3,0-0.7,0.1-1.1,0.1c-0.4,0-1,0-1.6,0l0.2,2c0.6-0.3,1.2-0.6,1.8-0.8s1.2-0.4,1.9-0.4
			c1.8-0.2,3.3,0,4.7,0.8c1.3,0.7,2.1,1.8,2.4,3.1c0.3,1.5,0,2.8-1,3.9c-1,1-2.5,1.7-4.5,1.9c-1.9,0.2-3.4,0.1-4.7-0.4
			s-2-1.3-2.2-2.4c-0.1-0.5,0-1,0.4-1.5c0.4-0.4,0.9-0.7,1.5-0.8c0.6-0.1,1.1,0,1.6,0.2c0.4,0.2,0.7,0.6,0.8,1
			c0.1,0.5,0,0.9-0.3,1.2C149.8,33.2,149.3,33.4,148.7,33.5z"/>
	</g>
</g>
<g>
	<g>
		<path class="st1" d="M189.7,143.5c-2.1-0.7-3.7-2.5-4.9-5.2c-1.1-2.6-1.8-5.7-2.3-9.3c-0.4-3.6-0.6-7.5-0.6-11.8
			c0-4.2,0.3-8.4,0.9-12.4c0.4-3.5,1-7.6,1.8-12.1c0.8-4.5,1.7-9.1,2.7-13.7c1-4.6,2-9.2,3.1-13.7l2.4-9.9c-4,2.4-7.4,4.3-10,5.9
			c-3.1,1.9-5.9,3.6-8.4,5.1l-1.3,0.8l-0.3-1.5c-0.2-1.2,0.4-3,2.1-5.7c1.5-2.4,3.7-5.2,6.6-8.3c2.8-3.1,6.2-6.4,10-9.9
			c3.8-3.4,8-6.7,12.3-9.9c0.6-0.3,1.2-0.4,2.2-0.6c0.5-0.1,1-0.1,1.5-0.1c0.4,0,0.8,0,1.1,0c0.8,0.1,1.6,0.2,2.2,0.4
			c0.5,0.1,1.1,0.4,1.4,0.9l0.2,0.4l-0.1,0.6c-2.7,7-5.2,14.3-7.5,21.8c-2.3,7.5-4.4,14.9-6.3,22.2c-1.8,7.3-3.5,14.4-4.8,21.2
			c-1.4,6.8-2.4,13.1-3.1,18.8c-0.7,5.7-1,10.7-0.9,15c0,4.2,0.5,7.4,1.3,9.4l0.9,2.2L189.7,143.5z"/>
		<path class="st1" d="M207.5,32.4c0.3,0,0.7,0,1,0c0.8,0.1,1.5,0.2,2,0.3c0.6,0.2,0.8,0.3,0.8,0.6c-2.7,7-5.2,14.3-7.5,21.8
			c-2.3,7.5-4.4,14.9-6.3,22.3c-1.8,7.3-3.4,14.4-4.8,21.3c-1.4,6.8-2.4,13.1-3.1,18.9c-0.7,5.7-1,10.8-0.9,15.1
			c0,4.3,0.5,7.6,1.4,9.8c-1.8-0.6-3.2-2.2-4.2-4.6c-1-2.5-1.8-5.5-2.2-9.1c-0.4-3.6-0.6-7.4-0.6-11.6c0-4.2,0.3-8.3,0.9-12.3
			c0.4-3.5,1-7.6,1.8-12.1c0.8-4.5,1.7-9,2.7-13.7c1-4.6,2-9.2,3.1-13.7c1.1-4.5,2.1-8.6,3-12.3c-5,2.9-9.1,5.3-12.2,7.2
			c-3.1,1.9-5.9,3.6-8.5,5.1c-0.2-0.9,0.5-2.5,2-4.9c1.5-2.4,3.7-5.1,6.4-8.2c2.8-3.1,6.1-6.4,9.9-9.8c3.8-3.4,7.9-6.7,12.2-9.8
			c0.3-0.2,0.9-0.3,1.7-0.4C206.6,32.4,207.1,32.4,207.5,32.4 M207.5,30.3c-0.5,0-1,0-1.6,0.1c-1.1,0.1-1.8,0.3-2.4,0.6l-0.1,0.1
			l-0.1,0.1c-4.4,3.2-8.6,6.5-12.4,9.9c-3.9,3.5-7.3,6.8-10.1,9.9c-2.8,3.2-5.1,6-6.7,8.5c-1.9,3-2.6,4.9-2.3,6.4l0.6,3l2.6-1.6
			c2.5-1.6,5.4-3.3,8.4-5.1c2.1-1.3,4.7-2.8,7.9-4.7l-1.5,6l-0.4,1.5c-1.1,4.5-2.1,9.1-3.1,13.7c-1,4.6-1.9,9.2-2.7,13.7
			c-0.8,4.5-1.4,8.6-1.8,12.2c-0.5,4-0.8,8.2-0.9,12.5c0,4.3,0.2,8.3,0.6,11.9c0.5,3.7,1.3,7,2.4,9.6c1.3,3,3.1,5,5.5,5.8l4.4,1.5
			l-1.7-4.3c-0.8-1.9-1.2-5-1.2-9.1c0-4.2,0.3-9.2,0.9-14.9c0.7-5.7,1.7-12,3-18.7c1.4-6.8,3-13.9,4.8-21.2
			c1.8-7.3,3.9-14.7,6.2-22.2c2.3-7.4,4.8-14.7,7.5-21.7l0-0.1l0-0.1c0.2-0.6,0.1-1.3-0.2-1.8c-0.5-0.9-1.4-1.2-2.1-1.4
			c-0.7-0.2-1.5-0.3-2.4-0.4C208.3,30.3,207.9,30.3,207.5,30.3L207.5,30.3z"/>
		<path class="st1" d="M51.6,199.1l1.8-3c1-1.4,2-2.6,3-3.7c1-1,2.2-2.1,3.4-3.2c4.2-3.4,8.7-6.1,13.5-8.2c4.8-2.1,10-3.9,15.5-5.3
			c0.6-0.2,1.3-0.3,2-0.5c2.1-1.8,4.5-3.3,7-4.5c0-0.2,0.1-0.3,0.1-0.5c-2,1.5-3.7,2.4-5.1,2.7c-0.6,0.2-1.1,0.2-1.5,0.2
			c-1.5,0-2-0.9-2.1-1.3c-0.5-1.7,1.4-3.1,2.8-4c1.6-1.1,3-1.7,4.2-2c0.5-0.1,0.9-0.2,1.4-0.2c4.4-6.1,4.7-9.2,4.3-10.8
			c-0.1-0.3-0.2-0.7-0.5-0.7c-0.4,0.1-1.5,0.7-5.5,6c-4.5,6.2-7.3,9.9-8.5,11.4c-3.7,4.4-6.7,6.8-9.3,7.5l0,0
			c-0.4,0.1-0.8,0.3-1.3,0.4c-0.5,0.1-1,0.2-1.4,0.2c-1.7,0-2.8-0.9-3.3-2.6c-0.3-0.9-0.3-2.6,1.1-6.6l-2.3,3
			c-4.7,6.2-8.4,9.5-11.3,10.3l-0.1,0c-0.1,0.1-0.2,0.1-0.4,0.2l-0.1,0l-0.3,0c-0.5,0-1-0.2-1.7-0.5c-0.6-0.3-1.4-0.8-1.7-1.6
			c-0.2-0.7-0.2-0.8,7.5-15.3c3.3-6.2,7-13.2,10.1-19.2c-0.2,0-0.4,0-0.5,0c-0.9,0-3.3,0-3.8-1.7c-0.2-0.8,0-1.4,0.2-1.7
			c0.4-0.6,1.1-1.1,2.2-1.3l5-1l7.9-14.6c1-2,2.5-4.7,4.5-8c-6.8,3-13.4,6.7-19.7,11.2c-0.6,0.4-1.1,0.7-1.5,0.8
			c-0.2,0.1-0.4,0.1-0.7,0.1c-0.5,0-1.7-0.2-2.2-1.9c-0.5-1.8,0.4-4.4,11.2-10.3c7.6-4.2,14.3-7,19.7-8.4c2.3-0.6,4.5-0.9,6.4-0.9
			c1,0,2.1,0.1,3,0.3c3.8,0.7,6.2,2.6,7.2,5.9c2,6.8-1.4,13.5-10,19.9c-6.5,4.8-13.7,8.3-21.4,10.3L69,168.2
			c-1.1,2.2-2.7,4.9-4.3,7.4c1.4-1.6,3.2-3.9,5.5-6.7l8.6-11.6l0.2-0.1c0.5-0.3,1.3-0.6,2.2-0.9c0.2-0.1,0.5-0.1,0.7-0.1
			c0.5,0,1.7,0.2,2.2,1.8c0.3,0.9,0,2.8-3.7,9.9c-2.7,5.3-3.4,7.1-3.5,7.8c0.1,0,0.3,0,0.5,0l0,0c2.4-1.3,5-3.6,7.7-6.9l3.9-4.7
			l5.4-7.3c3.7-5,5-6.1,5.7-6.5c1-0.6,1.8-0.9,2.4-1.1c0.6-0.2,1.2-0.2,1.7-0.2c2,0,3.5,1.2,4.1,3.3c1,3.6-1.2,8.3-6.8,14.5
			c0.7,0.5,1.2,1.2,1.5,2c2-1.3,4.2-3.4,6.4-6.1l3.9-4.7l5.4-7.3c3.8-5.1,5.1-6.2,5.7-6.5c1-0.6,1.8-0.9,2.4-1.1
			c0.6-0.2,1.2-0.2,1.7-0.2c2,0,3.5,1.2,4.1,3.3c1,3.6-1.2,8.3-6.8,14.5c0.7,0.5,1.1,1.1,1.5,1.9c1.7-1.2,3.7-3.2,6-6.1l3.7-4.6
			l5.9-7.5c3-3.3,5.7-5.2,8.4-5.9c0.5-0.1,0.9-0.2,1.4-0.2c0.8,0,1.9,0.2,2.7,1.1c0.5-0.5,0.9-0.8,1.3-0.9c0.3-0.1,0.6-0.1,0.8-0.1
			c0.9,0,1.7,0.5,1.9,1.4c0.2,0.8,0.2,2.2-3.5,9.4c-2.4,4.7-3.1,6.6-3.3,7.4c0,0,0.2-0.1,0.3-0.1c0,0,0.1,0,0.1-0.1
			c2.2-1,4.9-3.6,8-7.6c3.6-4.5,6.8-9.8,9.5-15.6c4.2-8.9,8.1-15.8,11.6-20.5c5.1-6.8,7.2-8,8.4-8.3c0.4-0.1,0.8-0.2,1.2-0.2
			c1.5,0,2.5,0.9,3,2.4c0.5,1.8-0.3,4.7-2.6,9.1c-1.9,3.5-5.7,8.2-11.6,14.3c-0.3,0.3-0.7,0.7-1.2,1.2c0.2,0,0.4,0,0.5,0
			c0.9,0,1.7,0.2,2.5,0.7c1.2,0.7,1.9,1.7,2.3,2.9c0.4,1.5,0.5,3.2,0.1,5l0.7-0.9l5.9-7.5c3-3.3,5.7-5.2,8.4-5.9
			c0.5-0.1,0.9-0.2,1.4-0.2c0.8,0,1.9,0.2,2.7,1.1c0.5-0.5,0.9-0.8,1.3-0.9c0.3-0.1,0.6-0.1,0.8-0.1c0.9,0,1.7,0.5,1.9,1.4
			c0.2,0.8,0.2,2.2-3.5,9.4c-2.4,4.7-3.1,6.6-3.3,7.4c0,0,0.3-0.1,0.3-0.1c0,0,0.1,0,0.2-0.1c0.7-0.3,1.6-0.9,2.6-1.7
			c1.6-1.2,4-3.9,6.9-7.8c2.5-3.3,4.3-6.1,5.6-8.3c-0.2-0.5-0.4-0.8-0.4-1c-0.3-1,0.2-2.3,1.6-4.3c1.8-2.5,2.6-3,3.2-3.2
			c0.2-0.1,0.4-0.1,0.6-0.1c0.8,0,1.5,0.5,1.7,1.3c0.1,0.3,0.1,0.7,0.1,1.2c0.2,0,0.3,0,0.5,0c2.1,0,3.5,1.1,4.1,3
			c0.6,1.9-0.4,5-3.1,9.8c-2,3.5-2.8,5.1-3.2,6l0.6-0.2l0.3,0c0.6,0,1.2,0.3,1.5,1.2c0.1,0.4,0.1,0.8-0.1,1.2
			c-0.4,0.6-1.1,1-2.5,1.4c-0.5,0.1-1,0.2-1.4,0.2c-1.6,0-2.7-0.9-3.2-2.5c-0.5-1.7-0.1-4,1.1-6.9c0.7-1.7,1.9-3.9,3.5-6.5
			c0.4-0.6,0.7-1.1,0.9-1.5c-0.1,0.1-0.2,0.1-0.3,0.2c-1.1,0.6-1.3,0.8-1.3,0.8c-8.4,12.8-14.5,19.7-18.7,20.9
			c-0.3,0.1-0.8,0.3-1.5,0.5c-0.5,0.1-0.9,0.2-1.3,0.2c-1.5,0-2.5-0.8-3-2.3c-0.1-0.3-0.2-0.7-0.2-1.1l-0.8,1.1
			c-2,2.3-3.6,3.6-5.2,4c-0.5,0.1-1,0.2-1.5,0.2c-1.8,0-3.2-1.1-3.8-3.1c-0.1-0.4-0.2-0.7-0.2-1.1c-3.7,4.4-6.6,7.1-8.9,8.1
			c-0.8,0.5-1.8,0.9-2.7,1.2c-0.7,0.2-1.4,0.3-2,0.3c-1.7,0-3.9-0.7-4.9-4.1c-0.2-0.8-0.3-1.8-0.3-2.9c-1.6,2.2-2.8,3.9-3.7,4.9
			c-3.3,4-6.1,6.3-8.5,7c-0.3,0.1-0.8,0.3-1.5,0.5c-0.5,0.1-0.9,0.2-1.3,0.2c-1.5,0-2.5-0.8-3-2.3c-0.1-0.3-0.2-0.7-0.2-1.1
			l-0.8,1.1c-2,2.3-3.6,3.6-5.2,4c-0.5,0.1-1,0.2-1.5,0.2c-1.9,0-3.2-1.1-3.8-3.1c-0.1-0.4-0.2-0.7-0.2-1.1
			c-3.7,4.4-6.6,7.1-8.9,8.1c-0.2,1.1-0.6,2.3-1.1,3.7l0.7-0.1c4.2-0.4,8.1-0.7,11.7-0.9c3.6-0.2,6.8-0.4,9.6-0.5
			c2.8-0.1,4.9-0.2,6.3-0.3c4.2-0.2,8.5-0.3,12.8-0.3c4.2,0,8.6-0.2,12.9-0.4c4.3-0.2,8.6-0.6,12.9-1c4.2-0.5,8.5-1.2,12.7-2.1
			c3.8-0.8,8.1-2.2,13-4.2c4.8-1.9,10-5.1,15.4-9.4l1.3,1.6c-3.1,2.6-6.3,5-9.7,7.1c-3.4,2.1-7,3.9-10.8,5.5c-4,1.5-8,2.7-12.2,3.5
			c-4.1,0.8-8.3,1.4-12.6,1.8c-4.3,0.4-8.6,0.7-12.9,0.8c-4.3,0.2-8.6,0.4-12.9,0.6c-8.9,0.4-17.8,0.9-26.5,1.5
			c-4.6,0.3-9.2,0.8-13.9,1.3c-0.7,1.3-1.4,2.7-2.3,4.1c-4.5,7.7-8.7,12-12.6,13c-0.6,0.1-1.1,0.2-1.6,0.2c-1.7,0-2.9-0.9-3.4-2.6
			c-0.9-3.1,0.5-7.2,4.2-12.7c-2.4,0.3-4.7,0.6-7.1,1c-0.9,2.1-2.2,4.6-3.8,7.3c-4.5,7.7-8.7,12-12.6,13c-0.6,0.1-1.1,0.2-1.6,0.2
			c-1.7,0-2.9-0.9-3.4-2.6c-0.9-3.1,0.5-7.3,4.3-12.8c0.4-0.6,0.8-1.1,1.2-1.7c-3.2,1-6.5,2-9.8,3c-3.7,1.2-7.2,2.8-10.4,4.8
			c-2.2,1.5-4.4,3.2-6.4,5c-1.9,1.7-3.8,3.9-5.4,6.5L51.6,199.1z M91,179.4c-1.6,1.5-3,3.2-4.2,5.1c-3.7,5.6-4,8.5-3.6,9.9l0.5,1.1
			l-0.3-1c1.4-0.3,3.9-2.3,8-9.5c1.3-2.3,2.5-4.5,3.5-6.6C93.6,178.8,92.3,179.1,91,179.4z M112.9,175.9c-0.6,0.8-1.2,1.6-1.8,2.5
			c-3.7,5.6-4,8.5-3.6,9.9l0.3,0.1c1.4-0.3,3.9-2.3,8-9.5c0.7-1.2,1.4-2.5,2-3.7C116.1,175.5,114.5,175.7,112.9,175.9z M103,172.8
			c3.1-0.5,6.4-1,9.6-1.4c2.8-2.8,6-5.2,9.6-7c0-0.2,0.1-0.3,0.1-0.5c-2,1.5-3.7,2.4-5.1,2.8c-0.6,0.2-1.1,0.2-1.5,0.2
			c-1.5,0-2-0.9-2.1-1.3c-0.5-1.7,1.4-3.1,2.8-4c1.6-1.1,3-1.7,4.2-2c0.5-0.1,0.9-0.2,1.4-0.2c4.4-6.1,4.7-9.2,4.3-10.8
			c-0.1-0.3-0.2-0.7-0.5-0.7c-0.1,0-0.1,0-0.2,0c-0.2,0.1-1.3,0.6-5.3,6c-4.4,6.1-7.3,9.9-8.5,11.4c-3.4,4.1-6.3,6.5-8.7,7.3
			C103,172.7,103,172.8,103,172.8z M120.6,169.1c-0.9,0.5-1.7,1.1-2.5,1.7c0.6-0.1,1.3-0.1,1.9-0.2
			C120.2,170.1,120.4,169.6,120.6,169.1z M152.6,141.8c-0.5,0.1-2.2,1.2-6.5,7.7c-4.1,6.3-4.3,8.2-4.3,8.7c0.6-0.3,2.4-1.5,6.5-7.6
			c4.6-6.8,4.4-8.4,4.3-8.7l0-0.1C152.7,141.8,152.7,141.8,152.6,141.8z M173.2,141.8c-2.5,6.1-2.6,8.4-2.3,9.2
			c0.1,0.3,0.2,0.3,0.3,0.3c0.1,0,0.1,0,0.3,0c1.2-0.3,3.1-1.8,5.5-6.7C174.9,144,173.8,142.9,173.2,141.8z M201,129
			c-0.5,0.1-2.2,1.2-6.5,7.7c-4.1,6.4-4.3,8.2-4.3,8.7c0.7-0.3,2.4-1.6,6.5-7.6c4.6-6.8,4.4-8.4,4.3-8.7l0-0.1
			C201.1,129,201.1,129,201,129z M179,135c-0.1,0-0.2,0-0.3,0c-0.9,0.2-1.6,0.8-2.1,1.9c-0.6,1.1-0.7,2-0.5,2.9
			c0.2,0.6,0.6,1.4,2.1,1.6c1.5-3.2,1.5-4.9,1.2-5.7C179.3,135,179.1,135,179,135z M95.5,116.3c0.1,0.7-0.3,2.4-5.8,12.8l-5.4,9.9
			c4.1-1.5,8-3.4,11.7-5.6c5.4-3.2,9.1-6.6,10.9-10c1.5-2.7,2-4.9,1.5-6.5c-0.3-1-1.1-2.3-4.5-2.3c-1.5,0-3.5,0.3-5.7,0.9
			C97.5,115.7,96.5,116,95.5,116.3z M191,109.3c-1,1.1-2.7,3.6-5.9,8.9c-1.2,2-2.2,3.8-3.1,5.4c4.7-5.3,7.6-9.7,8.7-13.2
			C190.8,110,190.9,109.7,191,109.3z"/>
		<path class="st1" d="M191.6,105.4c1,0,1.7,0.5,2,1.6c0.4,1.5-0.4,4.3-2.5,8.3c-1.8,3.4-5.6,8.1-11.4,14.1c-0.8,0.8-2,2-3.6,3.6
			c-0.3,0.3-0.5,0.8-0.7,1.7c1-1.2,2.1-1.9,3.4-2.2c0.4-0.1,0.7-0.1,1-0.1c0.7,0,1.3,0.2,1.9,0.5c0.9,0.5,1.5,1.3,1.8,2.3
			c0.8,2.9,0,6.5-2.4,10.8c0,0,0,0,0,0.1c0.5-0.5,0.9-1.1,1.4-1.7l3.7-4.6l5.9-7.5c2.8-3.1,5.4-4.9,7.8-5.5c0.4-0.1,0.8-0.2,1.1-0.2
			c1.2,0,2.1,0.6,2.7,1.9c0.7-1.1,1.2-1.7,1.6-1.7c0.2-0.1,0.4-0.1,0.5-0.1c0.5,0,0.8,0.2,0.9,0.7c0.2,0.8-0.9,3.7-3.4,8.6
			c-2.5,5-3.7,7.8-3.5,8.5c0.1,0.3,0.4,0.5,0.8,0.5c0.2,0,0.4,0,0.6-0.1c0.1,0,0.3-0.1,0.4-0.1c0.1,0,0.2-0.1,0.3-0.1
			c0.8-0.3,1.7-1,2.8-1.8c1.7-1.3,4.1-4,7.1-8c2.7-3.5,4.7-6.5,6-8.9c-0.3-0.7-0.5-1.1-0.6-1.3c-0.2-0.6,0.3-1.8,1.5-3.4
			c1.2-1.7,2.1-2.6,2.6-2.8c0.1,0,0.2,0,0.4,0c0.4,0,0.6,0.2,0.7,0.5c0.1,0.4,0,1.2-0.3,2.3c0.7-0.2,1.3-0.3,1.9-0.3
			c1.6,0,2.7,0.8,3.1,2.3c0.5,1.6-0.5,4.6-3,9c-2.5,4.4-3.7,6.8-3.5,7.2c0.1,0.3,0.3,0.5,0.7,0.5c0.1,0,0.1,0,0.2,0l1.2-0.3
			c0.1,0,0.1,0,0.2,0c0.2,0,0.4,0.2,0.5,0.5c0.1,0.5-0.5,0.9-1.9,1.2c-0.4,0.1-0.8,0.2-1.1,0.2c-1.1,0-1.9-0.6-2.2-1.7
			c-0.4-1.5-0.1-3.5,1.1-6.1c0.7-1.7,1.9-3.8,3.4-6.3c1.3-2.1,1.9-3.2,1.9-3.4c-0.1-0.3-0.2-0.4-0.5-0.4c-0.1,0-0.2,0-0.3,0
			c-0.4,0.1-1,0.4-1.9,0.9c-0.9,0.5-1.5,0.9-1.6,1.1c-8.2,12.6-14.3,19.5-18.2,20.6c-0.4,0.2-0.9,0.3-1.5,0.5
			c-0.4,0.1-0.7,0.1-1,0.1c-1,0-1.7-0.5-2-1.5c-0.3-1.1-0.1-2.7,0.6-5l-3.4,4.7c-1.7,2.1-3.3,3.3-4.6,3.6c-0.4,0.1-0.8,0.2-1.2,0.2
			c-1.4,0-2.3-0.8-2.8-2.3c-0.3-1.1-0.4-2.3-0.2-3.8c-4.5,5.6-7.9,9-10.4,10.1c-0.8,0.5-1.7,0.9-2.5,1.1c-0.6,0.2-1.2,0.2-1.7,0.2
			c-2,0-3.3-1.1-3.9-3.3c-0.4-1.5-0.4-3.7,0.2-6.7c-2.8,4.1-4.8,6.8-6.1,8.3c-3.1,3.8-5.8,6-8,6.6c-0.4,0.2-0.9,0.3-1.5,0.5
			c-0.4,0.1-0.7,0.1-1,0.1c-1,0-1.7-0.5-2-1.5c-0.3-1.1-0.1-2.7,0.6-5l-3.4,4.7c-1.7,2.1-3.3,3.3-4.6,3.6c-0.4,0.1-0.8,0.2-1.2,0.2
			c-1.4,0-2.3-0.8-2.8-2.3c-0.3-1.1-0.4-2.3-0.2-3.8c-4.8,6-8.4,9.5-10.8,10.3c-0.2,1.5-0.8,3.4-1.9,5.6c0.8-0.1,1.7-0.2,2.5-0.2
			c4.2-0.4,8.1-0.7,11.7-0.9c3.6-0.2,6.8-0.4,9.6-0.5c2.8-0.1,4.9-0.2,6.4-0.3c4.2-0.2,8.5-0.3,12.8-0.3c4.3,0,8.6-0.2,12.9-0.4
			c4.3-0.2,8.6-0.6,12.9-1c4.3-0.5,8.6-1.2,12.8-2.1c3.8-0.8,8.2-2.2,13.1-4.2c4.9-2,10.1-5.2,15.7-9.5c-3,2.6-6.2,4.9-9.6,7
			c-3.3,2.1-6.9,3.9-10.6,5.4c-3.9,1.5-7.9,2.6-12,3.4c-4.1,0.8-8.2,1.4-12.5,1.7c-4.3,0.4-8.6,0.7-12.9,0.8
			c-4.3,0.2-8.6,0.4-12.9,0.6c-8.9,0.4-17.7,0.9-26.5,1.5c-4.8,0.4-9.7,0.8-14.5,1.4c-0.7,1.4-1.6,2.9-2.5,4.6
			c-4.3,7.4-8.3,11.6-12,12.5c-0.5,0.1-0.9,0.2-1.3,0.2c-1.3,0-2.1-0.6-2.4-1.9c-0.8-2.7,0.6-6.7,4.1-11.9c0.4-0.7,0.9-1.3,1.4-1.9
			c-3.4,0.4-6.8,0.9-10.1,1.4c-0.9,2.2-2.3,4.8-4,7.8c-4.3,7.4-8.3,11.6-12,12.5c-0.5,0.1-0.9,0.2-1.3,0.2c-1.3,0-2.1-0.6-2.4-1.9
			c-0.8-2.7,0.6-6.7,4.1-11.9c1-1.5,2.2-2.9,3.4-4.2c-0.7,0.2-1.4,0.4-2,0.6c-3.7,1.1-7.4,2.2-11.2,3.4c-3.8,1.2-7.3,2.8-10.6,4.9
			c-2.3,1.6-4.5,3.3-6.5,5.1c-2,1.8-3.9,4.1-5.6,6.8l1.8-3c0.9-1.3,1.9-2.4,2.9-3.5c1-1,2.2-2.1,3.4-3.2c4.1-3.3,8.5-6,13.3-8.1
			c4.7-2.1,9.9-3.8,15.4-5.2c0.7-0.2,1.5-0.4,2.2-0.5c2.2-1.9,4.7-3.5,7.3-4.8c0.3-0.8,0.4-1.5,0.2-2.2c-0.1-0.3-0.3-0.5-0.6-0.6
			c-2.4,1.9-4.3,3-5.7,3.3c-0.5,0.1-0.9,0.2-1.3,0.2c-0.6,0-0.9-0.2-1.1-0.6c-0.2-0.7,0.6-1.7,2.4-2.8c1.5-1,2.8-1.6,3.9-1.9
			c0.6-0.1,1.1-0.2,1.7-0.2c3.9-5.4,5.5-9.4,4.7-12.1c-0.3-1-0.8-1.4-1.5-1.4c-0.1,0-0.3,0-0.5,0.1c-0.9,0.2-2.9,2.4-5.9,6.4
			c-4.5,6.1-7.3,9.9-8.5,11.3c-3.5,4.2-6.4,6.6-8.7,7.1c0,0,0,0,0,0c-0.3,0.1-0.8,0.3-1.3,0.4c-0.4,0.1-0.8,0.2-1.1,0.2
			c-1.2,0-2-0.6-2.3-1.9c-0.6-1.9,1-6.5,4.6-13.9l-7.7,10c-4.5,5.9-8.1,9.2-10.7,9.9c0,0-0.1,0-0.1,0c0,0-0.1,0-0.1,0
			c-0.1,0.1-0.1,0.2-0.2,0.2c-0.1,0-0.1,0-0.2,0c-0.3,0-0.7-0.1-1.2-0.4c-0.7-0.3-1-0.6-1.1-0.9c-0.2-0.8,11.3-21.5,18.3-35.4
			c-0.9,0.1-1.7,0.1-2.3,0.1c-1.7,0-2.6-0.3-2.8-0.9c-0.2-0.8,0.3-1.4,1.5-1.7l5.5-1.1l8.1-15c1.3-2.5,3.3-6.1,6.1-10.7
			c-8,3.2-15.6,7.4-22.9,12.6c-0.5,0.3-0.9,0.5-1.2,0.6c-0.1,0-0.3,0.1-0.4,0.1c-0.6,0-1-0.4-1.2-1.2c-0.5-1.8,3-4.9,10.7-9.1
			c7.6-4.2,14.1-6.9,19.5-8.3c2.2-0.6,4.3-0.9,6.2-0.9c1,0,1.9,0.1,2.8,0.2c3.4,0.6,5.5,2.3,6.3,5.2c1.9,6.3-1.3,12.6-9.6,18.8
			c-6.5,4.9-13.7,8.3-21.5,10.3L68,167.7c-2.2,4.5-6.9,11.4-7.9,13.2c1.1-0.6,2.1-1.2,2.9-2c1.3-1.2,4-4.3,8-9.4l8.5-11.5
			c0.4-0.3,1.1-0.5,1.9-0.7c0.2,0,0.3-0.1,0.4-0.1c0.6,0,1,0.4,1.2,1.1c0.3,0.9-0.9,4-3.6,9.1c-2.7,5.1-3.9,8.1-3.7,8.8
			c0.1,0.4,0.5,0.6,1.1,0.6c0.2,0,0.5,0,0.9-0.1c0,0,0.1-0.1,0.1-0.1c2.5-1.3,5.2-3.7,8-7.1l3.9-4.7l5.4-7.3
			c2.7-3.7,4.5-5.7,5.4-6.3c0.9-0.5,1.6-0.8,2.2-1c0.5-0.1,1-0.2,1.5-0.2c1.6,0,2.6,0.8,3.1,2.5c1,3.3-1.5,8.2-7.5,14.5
			c1.2,0.3,2,1.1,2.3,2.3c0.1,0.3,0.1,0.7,0.2,1.1c2.5-1.3,5.2-3.7,7.9-7.1l3.9-4.7l5.4-7.3c2.7-3.7,4.5-5.7,5.4-6.3
			c0.9-0.5,1.6-0.8,2.2-1c0.5-0.1,1-0.2,1.5-0.2c1.6,0,2.6,0.8,3.1,2.5c1,3.3-1.5,8.2-7.5,14.5c1.2,0.3,2,1.1,2.3,2.3
			c0.1,0.3,0.1,0.6,0.2,1c2.1-1,4.6-3.4,7.6-7.1l3.7-4.6l5.9-7.5c2.8-3.1,5.4-4.9,7.8-5.5c0.4-0.1,0.8-0.2,1.1-0.2
			c1.2,0,2.1,0.6,2.7,1.9c0.7-1.1,1.2-1.7,1.6-1.7c0.2-0.1,0.4-0.1,0.5-0.1c0.5,0,0.8,0.2,0.9,0.7c0.2,0.8-0.9,3.7-3.4,8.6
			c-2.5,5-3.7,7.8-3.5,8.5c0.1,0.3,0.4,0.5,0.8,0.5c0.2,0,0.4,0,0.6-0.1c0.1,0,0.3-0.1,0.4-0.1c0.1,0,0.2-0.1,0.2-0.1
			c2.3-1.1,5.1-3.7,8.4-7.9c3.6-4.6,6.9-9.9,9.7-15.8c4.2-8.9,8-15.7,11.5-20.4c3.6-4.9,6.2-7.5,7.8-7.9
			C191,105.4,191.3,105.4,191.6,105.4 M177.5,129.9c8-7.9,12.7-14.2,14.2-19.1c0.5-1.7,0.7-2.7,0.6-3.2c-0.1-0.2-0.2-0.3-0.4-0.3
			c0,0-0.1,0-0.1,0c-1.1,0.3-3.6,3.7-7.6,10.4C181,123.1,178.7,127.2,177.5,129.9 M82,140.9c5.1-1.7,10-3.9,14.5-6.6
			c5.6-3.4,9.3-6.8,11.3-10.4c1.6-3,2.2-5.4,1.6-7.3c-0.6-2.1-2.4-3.1-5.5-3.1c-1.6,0-3.6,0.3-6,0.9c-1,0.3-2.3,0.7-4,1.2
			c0.2,0.3,0.4,0.5,0.4,0.7c0.2,0.6-1.7,4.7-5.7,12.2L82,140.9 M190.1,146.5c0.1,0,0.2,0,0.4,0c1.4-0.3,3.8-3,7.1-8.1
			c3.4-5,4.9-8.2,4.5-9.6c-0.2-0.6-0.5-0.9-1-0.9c-0.1,0-0.2,0-0.4,0.1c-1.4,0.4-3.8,3.1-7.1,8.2c-3.3,5.1-4.8,8.3-4.4,9.6
			C189.4,146.3,189.7,146.5,190.1,146.5 M178.9,142.5c1.5-3.1,2.1-5.5,1.6-7.1c-0.3-0.9-0.8-1.4-1.5-1.4c-0.2,0-0.3,0-0.5,0.1
			c-1.2,0.3-2.1,1.1-2.8,2.4c-0.7,1.3-0.9,2.5-0.5,3.7C175.6,141.7,176.9,142.4,178.9,142.5 M171.1,152.4c0.2,0,0.3,0,0.5-0.1
			c2.2-0.6,4.5-3.4,6.7-8.6c-2.5-0.3-4-1.4-4.6-3.3c-0.2-0.7-0.2-1.6,0-2.8c-3.2,7.1-4.5,11.6-4,13.6
			C170.1,152,170.5,152.4,171.1,152.4 M141.7,159.3c0.1,0,0.2,0,0.4,0c1.4-0.3,3.8-3,7.1-8.1c3.4-5,4.9-8.2,4.5-9.6
			c-0.2-0.6-0.5-0.9-1-0.9c-0.1,0-0.2,0-0.4,0.1c-1.4,0.4-3.8,3.1-7.1,8.2c-3.3,5.1-4.8,8.3-4.4,9.6
			C141,159.1,141.3,159.3,141.7,159.3 M101.5,174.1c3.8-0.7,7.7-1.2,11.5-1.7c2.8-3,6.2-5.4,9.9-7.2c0.3-0.8,0.4-1.5,0.2-2.2
			c-0.1-0.3-0.3-0.5-0.6-0.6c-2.4,1.9-4.3,3-5.7,3.3c-0.5,0.1-0.9,0.2-1.3,0.2c-0.6,0-0.9-0.2-1.1-0.6c-0.2-0.7,0.6-1.7,2.4-2.8
			c1.5-1,2.8-1.6,3.9-1.9c0.6-0.1,1.1-0.2,1.7-0.2c3.9-5.4,5.5-9.4,4.7-12.1c-0.3-1-0.8-1.4-1.5-1.4c-0.1,0-0.3,0-0.5,0.1
			c-0.9,0.2-2.9,2.4-5.9,6.4c-4.5,6.1-7.3,9.9-8.5,11.3c-3.5,4.2-6.4,6.6-8.7,7.1c0,0-0.1,0-0.1,0
			C102,172.5,101.8,173.3,101.5,174.1 M114.8,172.2c2-0.2,4-0.4,5.9-0.6c0.8-1.7,1.4-3.3,1.9-4.8
			C119.7,168.2,117.1,170.1,114.8,172.2 M93.9,175.6c1.2-0.3,2.5-0.5,3.8-0.8c0.2-0.6,0.5-1.3,0.7-1.9
			C96.7,173.8,95.3,174.6,93.9,175.6 M107.5,189.5c0.1,0,0.3,0,0.5-0.1c2.3-0.6,5.2-3.9,8.7-10c1.1-1.9,2.1-3.8,2.9-5.5
			c-2.4,0.3-4.9,0.6-7.3,1c-0.7,0.9-1.5,1.9-2.1,2.9c-3.2,4.8-4.4,8.4-3.7,10.8C106.6,189.2,107,189.5,107.5,189.5 M83.2,195.7
			c0.1,0,0.3,0,0.5-0.1c2.3-0.6,5.2-3.9,8.7-10c1.8-3.1,3.2-5.9,4.3-8.5c-2.1,0.4-4.2,0.8-6.2,1.3c-1.7,1.6-3.2,3.5-4.6,5.5
			c-3.2,4.8-4.4,8.4-3.7,10.8C82.3,195.4,82.7,195.7,83.2,195.7 M234.9,151.7L234.9,151.7 M191.6,103.3
			C191.6,103.3,191.6,103.3,191.6,103.3c-0.5,0-0.9,0.1-1.4,0.2c-1.5,0.4-3.7,1.7-8.9,8.7c-3.6,4.8-7.5,11.7-11.7,20.7
			c-2.7,5.8-5.9,11-9.4,15.4c-2.3,3-4.2,4.8-5.5,5.9c0.5-1.1,1.2-2.5,2.1-4.4c3.9-7.6,3.9-9.1,3.6-10.2c-0.4-1.4-1.5-2.2-3-2.2
			c-0.3,0-0.7,0-1.1,0.1c-0.4,0.1-0.7,0.3-1.1,0.5c-0.8-0.5-1.7-0.8-2.7-0.8c-0.5,0-1.1,0.1-1.6,0.2c-2.9,0.7-5.8,2.7-8.9,6.2l0,0.1
			l0,0.1l-5.9,7.5l-3.7,4.6c-2,2.5-3.6,4.1-4.8,5.1c-0.1-0.1-0.2-0.3-0.3-0.4c5.4-6.1,7.4-10.9,6.3-14.7c-0.8-2.6-2.6-4.1-5.1-4.1
			c-0.6,0-1.3,0.1-2,0.3c-0.8,0.2-1.6,0.6-2.7,1.2c-0.9,0.5-2.2,1.7-6.1,6.8l-5.4,7.3l-3.8,4.7c-1.8,2.2-3.5,3.9-5.2,5.2
			c-0.1-0.2-0.2-0.3-0.4-0.5c5.4-6.1,7.4-10.9,6.3-14.7c-0.8-2.6-2.6-4.1-5.1-4.1c-0.6,0-1.3,0.1-2,0.3c-0.8,0.2-1.6,0.6-2.7,1.2
			c-0.9,0.5-2.2,1.7-6.1,6.8l-5.4,7.3l-3.8,4.7c-1.9,2.3-3.6,4-5.3,5.3c0.5-1.1,1.3-2.8,2.5-5c4.1-7.8,4.1-9.5,3.7-10.7
			c-0.5-1.6-1.7-2.6-3.2-2.6c-0.3,0-0.6,0-1,0.1c-1.1,0.3-1.9,0.6-2.5,1l-0.3,0.2l-0.2,0.3l-6,8.1l9.2-18
			c7.7-2.1,14.8-5.6,21.3-10.4c9-6.7,12.5-13.8,10.4-21c-0.7-2.5-2.7-5.7-8-6.7c-1-0.2-2.1-0.3-3.2-0.3c-2,0-4.3,0.3-6.7,0.9
			c-5.5,1.4-12.2,4.3-20,8.5c-9.3,5.1-12.6,8.3-11.7,11.5c0.5,1.7,1.7,2.7,3.2,2.7c0.3,0,0.6,0,0.9-0.1c0.6-0.1,1.2-0.5,1.9-1
			c5.3-3.8,10.8-7,16.5-9.7c-1.2,2.1-2.1,3.8-2.9,5.2l-7.6,14.1l-4.5,0.9c-1.4,0.3-2.3,0.9-2.9,1.8c-0.4,0.7-0.5,1.6-0.3,2.5
			c0.5,1.8,2.3,2.3,3.6,2.4c-2.9,5.7-6.3,12-9.3,17.7c-7.9,14.8-7.9,14.9-7.5,16.1c0.4,1.4,1.8,2,2.2,2.3c0.8,0.4,1.5,0.6,2.2,0.6
			c0.3,0,0.5,0,0.7-0.1c0.2,0,0.4-0.1,0.5-0.2c3-0.8,6.5-3.9,11-9.6c-0.1,0.9,0,1.6,0.2,2.1c0.4,1.2,1,2.2,1.9,2.7c0,0-0.1,0-0.1,0
			c-4.9,2.1-9.5,5-13.7,8.3l0,0l0,0c-1.2,1.1-2.4,2.2-3.5,3.3c-1.1,1.1-2.2,2.4-3.1,3.8l0,0.1l0,0.1l-1.8,3l3.6,2.3
			c1.6-2.5,3.4-4.7,5.3-6.3c1.9-1.7,4-3.4,6.3-4.9c3.1-1.9,6.5-3.5,10.1-4.6c2.3-0.7,4.6-1.4,6.9-2.1c-3.5,5.4-4.8,9.6-3.8,12.8
			c0.6,2.2,2.3,3.4,4.5,3.4c0.6,0,1.2-0.1,1.8-0.2c4.2-1.1,8.6-5.5,13.3-13.5c1.5-2.6,2.7-4.9,3.7-6.9c1.4-0.2,2.8-0.4,4.2-0.6
			c-3,4.8-4,8.6-3.1,11.6c0.6,2.2,2.3,3.4,4.5,3.4c0.6,0,1.2-0.1,1.8-0.2c4.2-1.1,8.6-5.5,13.3-13.5c0.8-1.3,1.4-2.5,2.1-3.7
			c4.5-0.5,8.9-0.9,13.3-1.2c8.7-0.6,17.6-1.2,26.5-1.5c4.4-0.2,8.7-0.4,12.9-0.6c4.3-0.2,8.7-0.5,13-0.9c4.3-0.4,8.5-1,12.7-1.8
			c4.2-0.8,8.3-2,12.3-3.5c3.9-1.6,7.6-3.4,11-5.6c3.4-2.1,6.7-4.5,9.8-7.2l-1.4-1.7l0-2.1h0v2.1l-1.3-1.6
			c-5.3,4.2-10.4,7.3-15.2,9.2c-4.8,1.9-9.1,3.3-12.8,4.1c-4.2,0.9-8.4,1.6-12.6,2.1c-4.2,0.5-8.5,0.8-12.8,1
			c-4.3,0.2-8.6,0.3-12.8,0.4c-4.3,0-8.6,0.1-12.8,0.3c-1.5,0.1-3.6,0.2-6.4,0.3c-2.8,0.1-6,0.3-9.6,0.5c-3.3,0.2-6.9,0.5-10.8,0.8
			c0.2-0.6,0.4-1.2,0.5-1.7c2-1.1,4.5-3.3,7.4-6.7c0.8,2,2.4,3.1,4.5,3.1c0.5,0,1.1-0.1,1.7-0.2c1.6-0.4,3.3-1.7,5.2-3.8
			c0.7,1.3,2,2.1,3.6,2.1c0.5,0,1-0.1,1.6-0.2c0.7-0.2,1.3-0.4,1.7-0.6c2.6-0.8,5.5-3.2,8.9-7.3c0.5-0.6,1.2-1.5,2.1-2.6
			c0,0.1,0.1,0.2,0.1,0.3c1.2,4.2,4.3,4.9,6,4.9c0.7,0,1.4-0.1,2.2-0.3c1-0.3,2-0.7,3-1.3c2.1-1,4.6-3.3,7.8-6.9
			c0.8,2,2.4,3.1,4.5,3.1c0.5,0,1.1-0.1,1.7-0.2c1.6-0.4,3.3-1.7,5.2-3.8c0.7,1.3,2,2.1,3.6,2.1c0.5,0,1-0.1,1.6-0.2
			c0.7-0.2,1.3-0.4,1.7-0.6c2.4-0.7,6.2-3.1,13.7-13.4c-0.7,2.2-0.9,4.1-0.4,5.7c0.6,2,2.1,3.2,4.2,3.2c0.5,0,1.1-0.1,1.7-0.2
			c1.2-0.3,2.5-0.8,3.2-1.9c0.3-0.6,0.4-1.3,0.2-2c-0.3-0.9-0.9-1.6-1.7-1.8c0.5-1,1.2-2.3,2.4-4.3c2.9-5.1,3.9-8.4,3.2-10.6
			c-0.7-2.2-2.3-3.6-4.6-3.8c0-0.2-0.1-0.3-0.1-0.5c-0.4-1.3-1.4-2.1-2.7-2.1c-0.3,0-0.6,0-0.9,0.1c-1.2,0.3-2.3,1.3-3.8,3.6
			c-1.7,2.4-2.2,3.9-1.8,5.2c0,0.1,0.1,0.3,0.2,0.6c-1.3,2.1-3,4.7-5.3,7.8c-2.9,3.8-5.1,6.4-6.7,7.6c-0.2,0.1-0.3,0.2-0.4,0.3
			c0.5-1.1,1.2-2.5,2.2-4.5c3.9-7.6,3.9-9.1,3.6-10.2c-0.4-1.4-1.5-2.2-3-2.2c-0.3,0-0.7,0-1.1,0.1c-0.4,0.1-0.7,0.3-1.1,0.5
			c-0.8-0.5-1.7-0.8-2.7-0.8c-0.5,0-1.1,0.1-1.6,0.2c-2.9,0.7-5.8,2.7-8.9,6.2l0,0.1l0,0.1l-4.4,5.7c-0.1-0.7-0.2-1.4-0.4-2
			c-0.4-1.5-1.4-2.7-2.8-3.6c-0.4-0.2-0.8-0.4-1.2-0.5c5.8-6,9.6-10.7,11.4-14.2c2.5-4.7,3.3-7.7,2.7-9.9
			C195,104.4,193.5,103.3,191.6,103.3L191.6,103.3L191.6,103.3z M96.5,117.1c0.8-0.2,1.4-0.4,2-0.6c2.2-0.6,4-0.8,5.5-0.8
			c3,0,3.3,1.1,3.5,1.6c0.4,1.3-0.1,3.2-1.4,5.7c-1.8,3.2-5.3,6.4-10.5,9.6c-2.8,1.7-5.8,3.2-8.8,4.5l4-7.3
			C94.9,121.5,96.2,118.5,96.5,117.1L96.5,117.1z M193.2,141c0.6-1,1.3-2.2,2.3-3.7c1.4-2.1,2.4-3.6,3.3-4.7
			c-0.6,1.1-1.5,2.6-2.8,4.6C194.8,138.8,193.9,140,193.2,141L193.2,141z M177.7,140.1c-0.4-0.2-0.4-0.4-0.5-0.6
			c-0.2-0.6,0-1.3,0.4-2.1c0.3-0.7,0.7-1,1-1.2C178.6,136.9,178.5,138,177.7,140.1L177.7,140.1z M171.9,149.9c0.1-0.9,0.4-2.7,1.6-6
			c0.5,0.5,1.1,0.9,1.9,1.2C173.9,148.1,172.6,149.4,171.9,149.9L171.9,149.9z M144.8,153.8c0.6-1,1.3-2.2,2.3-3.7
			c1.4-2.1,2.4-3.6,3.3-4.7c-0.6,1.1-1.5,2.6-2.8,4.6C146.4,151.6,145.5,152.8,144.8,153.8L144.8,153.8z M117.2,159.9
			c1.1-1.5,2.4-3.3,3.9-5.3c2.2-3,3.5-4.4,4.1-5.1c0.1,1.3-0.5,4-4,8.9c-0.3,0.1-0.7,0.1-1,0.2C119.4,158.8,118.4,159.2,117.2,159.9
			L117.2,159.9z M92.9,166c1.1-1.5,2.4-3.3,3.9-5.3c2.2-3,3.5-4.4,4.1-5.1c0.1,1.3-0.5,4-4,8.9c-0.3,0.1-0.7,0.1-1,0.2
			C95.1,165,94.1,165.4,92.9,166L92.9,166z M107.6,171c1.5-1.3,3.1-2.9,4.9-5c0.1,0.5,0.7,1.7,2.3,2c-0.9,0.8-1.8,1.6-2.7,2.5
			C110.6,170.6,109.1,170.8,107.6,171L107.6,171z M85.1,175.6c1-1,2.1-2.1,3.2-3.5c0.1,0.5,0.7,1.7,2.3,2c0,0-0.1,0-0.1,0.1
			c-0.6,0.1-1.2,0.3-1.7,0.4C87.4,175,86.2,175.3,85.1,175.6L85.1,175.6z M113.4,176.9c0.8-0.1,1.6-0.2,2.4-0.3
			c-0.3,0.6-0.7,1.2-1,1.8c-3.2,5.5-5.3,7.7-6.4,8.5c0.1-1.4,0.8-3.8,3.6-8C112.4,178.3,112.9,177.6,113.4,176.9L113.4,176.9z
			 M91.5,180.4c0.5-0.1,1-0.2,1.5-0.3c-0.7,1.5-1.6,3-2.5,4.5c-3.2,5.5-5.3,7.7-6.4,8.5c0.1-1.4,0.8-3.8,3.6-8
			C88.8,183.4,90.1,181.8,91.5,180.4L91.5,180.4z"/>
		<path class="st1" d="M83.7,155.2c-1.5,0-2.5-0.9-2.7-2.5c-0.2-1.3,0.5-2.6,1.9-3.7c1.2-0.9,2.4-1.5,3.7-1.6c0.2,0,0.3,0,0.5,0
			c1.6,0,2.7,1,2.9,2.7c0.1,0.9-0.2,2.3-2.1,3.6c-1.2,0.8-2.4,1.3-3.7,1.4C84,155.2,83.8,155.2,83.7,155.2z"/>
		<path class="st1" d="M87,148.5c1.1,0,1.7,0.6,1.8,1.8c0.1,0.9-0.4,1.8-1.6,2.6c-1,0.7-2.1,1.1-3.2,1.3c-0.1,0-0.2,0-0.3,0
			c-1,0-1.5-0.5-1.7-1.5c-0.1-0.9,0.4-1.9,1.5-2.8c1-0.8,2.1-1.3,3.2-1.4C86.8,148.5,86.9,148.5,87,148.5 M87,146.3
			c-0.2,0-0.4,0-0.6,0c-1.5,0.2-2.9,0.8-4.3,1.8c-2.2,1.7-2.4,3.5-2.3,4.7c0.3,2.1,1.7,3.4,3.8,3.4c0.2,0,0.4,0,0.6,0
			c1.4-0.2,2.9-0.7,4.2-1.6c2.4-1.6,2.7-3.4,2.5-4.6C90.7,147.7,89.2,146.3,87,146.3L87,146.3z"/>
		<path class="st1" d="M113.8,137.6c3-0.8,5.9-2.2,8.5-4.2c2.7-2,5.1-4.6,7.3-7.6c2.2-3,4.2-6.5,6-10.2c1-2.1,1.9-4.3,2.7-6.5
			c-1.8,1.7-3.8,3.1-5.9,4.1c-2.7,1.3-5.5,1.9-8.4,1.9c-1,0-1.9-0.1-2.9-0.2c-3.4-0.2-6.5-1.3-9.1-3.4c-2.6-2-4.7-4.6-6.3-7.8
			c-1.6-3.1-2.7-6.7-3.4-10.6c-0.7-3.9-0.9-7.9-0.7-12c0.2-4,1-8,2.1-11.9c1.2-3.9,2.8-7.4,5-10.6c2.2-3.1,4.9-5.8,8.1-7.8
			c3.2-2,7-3.2,11.2-3.4c0.6,0,1.1,0,1.7,0c4.6,0,8.5,1.2,11.5,3.4c3.4,2.5,6,6,7.8,10.2c1.7,4.2,2.7,9.1,2.9,14.6
			c0.2,5.5-0.2,11.1-1.3,16.9c-1.1,5.7-2.7,11.4-4.9,16.9c-2.2,5.5-4.9,10.6-8,14.9c-3.2,4.4-6.8,8-10.7,10.8c-4,2.8-8.4,4.3-13,4.4
			L113.8,137.6z M128.8,59.6c-0.6,0-1.2,0-1.8,0.1c-3.7,0.4-6.8,1.8-9.2,4.2c-2.5,2.5-4.4,5.5-5.6,9c-1.3,3.5-2,7.4-2.2,11.5
			c-0.1,4.1,0.2,8,1.1,11.6c0.9,3.6,2.3,6.7,4.1,9.3c1.8,2.5,3.9,3.9,6.6,4.4c0.7,0.1,1.4,0.1,2.1,0.1c3.7,0,7.2-1.4,10.4-4.2
			c3.9-3.4,6.8-8.8,8.7-16.3c0.4-4.1,0.5-8.2,0.1-12c-0.4-3.8-1.3-7.1-2.6-9.8c-1.3-2.7-3.1-4.8-5.3-6.2
			C133.4,60.2,131.3,59.6,128.8,59.6z"/>
		<path class="st1" d="M129.7,48.5c4.4,0,8,1.1,10.9,3.2c3.3,2.4,5.7,5.7,7.4,9.8c1.7,4.1,2.6,8.9,2.8,14.3c0.2,5.4-0.2,11-1.3,16.6
			c-1.1,5.7-2.7,11.3-4.8,16.7c-2.1,5.5-4.8,10.4-7.9,14.7c-3.1,4.3-6.6,7.8-10.5,10.5c-3.9,2.7-8,4.1-12.4,4.2
			c3.2-0.8,6.1-2.3,8.9-4.4c2.8-2.1,5.3-4.7,7.6-7.8c2.3-3.1,4.3-6.6,6.1-10.4c1.8-3.8,3.3-7.7,4.5-11.8c-2.6,3.7-5.6,6.4-9,8
			c-2.6,1.2-5.2,1.8-7.9,1.8c-0.9,0-1.8-0.1-2.8-0.2c-3.3-0.2-6.1-1.2-8.6-3.2c-2.5-1.9-4.5-4.4-6-7.4c-1.6-3-2.7-6.5-3.3-10.3
			c-0.7-3.8-0.9-7.7-0.6-11.7c0.2-4,0.9-7.9,2.1-11.7c1.1-3.8,2.7-7.2,4.8-10.3c2.1-3,4.7-5.5,7.8-7.5c3.1-2,6.6-3,10.6-3.2
			C128.7,48.5,129.2,48.5,129.7,48.5 M123.9,110.9c3.9,0,7.6-1.5,11.1-4.4c4.1-3.5,7.1-9.1,9-16.8c0.5-4.4,0.5-8.5,0.1-12.4
			c-0.4-3.9-1.3-7.3-2.7-10.2c-1.4-2.9-3.3-5.1-5.6-6.6c-1.9-1.3-4.3-1.9-6.9-1.9c-0.6,0-1.3,0-1.9,0.1c-4,0.4-7.2,1.9-9.8,4.5
			c-2.6,2.6-4.6,5.7-5.9,9.4c-1.3,3.7-2.1,7.6-2.2,11.8c-0.2,4.2,0.2,8.2,1.2,11.9c0.9,3.7,2.4,6.9,4.3,9.6c1.9,2.7,4.3,4.3,7.2,4.8
			C122.4,110.9,123.2,110.9,123.9,110.9 M129.7,46.4c-0.6,0-1.1,0-1.7,0c-4.3,0.2-8.3,1.4-11.6,3.5c-3.3,2.1-6.1,4.8-8.4,8.1
			c-2.2,3.2-3.9,6.9-5.1,10.9c-1.2,3.9-1.9,8-2.1,12.1c-0.3,4.1,0,8.2,0.7,12.2c0.7,4,1.9,7.7,3.5,10.9c1.7,3.3,3.9,6.1,6.6,8.2
			c2.8,2.2,6,3.4,9.7,3.6c1,0.1,2,0.2,3,0.2c3,0,6-0.7,8.8-2c1-0.5,2-1,2.9-1.7c-0.4,0.9-0.8,1.8-1.2,2.6c-1.7,3.7-3.7,7-5.9,10
			c-2.1,2.9-4.5,5.4-7.1,7.4c-2.5,1.9-5.3,3.3-8.2,4l0.6,4.2c4.8-0.1,9.4-1.6,13.6-4.6c4-2.8,7.7-6.6,11-11
			c3.2-4.4,5.9-9.5,8.1-15.2c2.2-5.6,3.8-11.3,4.9-17.1c1.1-5.8,1.5-11.6,1.3-17.1c-0.2-5.6-1.2-10.7-3-15
			c-1.8-4.5-4.5-8.1-8.1-10.7C138.6,47.6,134.5,46.4,129.7,46.4L129.7,46.4z M123.9,108.8c-0.7,0-1.3,0-2-0.1
			c-2.3-0.4-4.2-1.7-5.8-3.9c-1.8-2.5-3.1-5.4-3.9-8.9c-0.9-3.5-1.2-7.3-1.1-11.3c0.1-4,0.8-7.7,2.1-11.2c1.2-3.4,3-6.3,5.4-8.6
			c2.3-2.3,5.1-3.5,8.6-3.9c0.6-0.1,1.1-0.1,1.7-0.1c2.3,0,4.2,0.5,5.8,1.6c2,1.3,3.7,3.3,4.9,5.8c1.3,2.6,2.1,5.8,2.5,9.5
			c0.4,3.7,0.4,7.7-0.1,11.8c-1.8,7.2-4.6,12.4-8.3,15.6C130.6,107.5,127.4,108.8,123.9,108.8L123.9,108.8z"/>
		<path class="st1" d="M159.3,130.2c-1.7-0.6-3.1-2.1-4.1-4.4c-0.9-2.1-1.5-4.7-1.9-7.7c-0.4-2.9-0.5-6.2-0.5-9.7
			c0-3.5,0.3-6.9,0.7-10.2c0.3-2.9,0.8-6.2,1.5-9.9c0.7-3.7,1.4-7.5,2.2-11.2c0.8-3.8,1.7-7.5,2.6-11.2l1.9-7.7
			c-3.1,1.8-5.7,3.4-7.8,4.6c-2.5,1.5-4.8,2.9-6.9,4.2l-1.3,0.8l-0.3-1.5c-0.2-1,0.3-2.5,1.8-4.8c1.3-2,3.1-4.3,5.4-6.8
			c2.3-2.5,5.1-5.3,8.2-8.1c3.1-2.8,6.5-5.5,10.1-8.1c0.5-0.3,1.1-0.4,1.9-0.5c0.4,0,0.8-0.1,1.2-0.1c0.3,0,0.6,0,0.9,0
			c0.7,0.1,1.3,0.2,1.9,0.3c0.4,0.1,1,0.3,1.3,0.8l0.2,0.4l-0.1,0.6c-2.2,5.8-4.3,11.8-6.2,17.9c-1.9,6.1-3.6,12.2-5.1,18.2
			c-1.5,6-2.8,11.8-3.9,17.4c-1.1,5.5-2,10.7-2.5,15.4c-0.5,4.6-0.8,8.8-0.8,12.3c0,3.4,0.4,6,1.1,7.7l0.9,2.2L159.3,130.2z"/>
		<path class="st1" d="M173.9,39.1c0.3,0,0.6,0,0.8,0c0.6,0.1,1.2,0.2,1.7,0.3c0.5,0.1,0.7,0.3,0.6,0.5c-2.2,5.7-4.2,11.7-6.2,17.9
			c-1.9,6.2-3.6,12.2-5.1,18.2c-1.5,6-2.8,11.8-4,17.4c-1.1,5.6-2,10.8-2.5,15.5c-0.5,4.7-0.8,8.8-0.8,12.4c0,3.6,0.4,6.2,1.1,8
			c-1.5-0.5-2.6-1.8-3.5-3.8c-0.9-2-1.5-4.5-1.8-7.4c-0.4-2.9-0.5-6.1-0.5-9.5c0-3.4,0.3-6.8,0.7-10.1c0.3-2.9,0.8-6.2,1.5-9.9
			c0.7-3.7,1.4-7.4,2.2-11.2c0.8-3.8,1.7-7.5,2.6-11.2c0.9-3.7,1.7-7,2.4-10.1c-4.1,2.4-7.4,4.3-10,5.9c-2.5,1.5-4.8,2.9-6.9,4.2
			c-0.1-0.7,0.4-2.1,1.6-4c1.2-1.9,3-4.2,5.3-6.7c2.3-2.5,5-5.2,8.1-8c3.1-2.8,6.5-5.5,10-8c0.2-0.1,0.7-0.2,1.4-0.3
			C173.2,39.1,173.6,39.1,173.9,39.1 M173.9,37c-0.4,0-0.9,0-1.3,0.1c-1,0.1-1.6,0.3-2.1,0.5l-0.1,0.1l-0.1,0.1
			c-3.6,2.6-7,5.3-10.2,8.2c-3.2,2.8-6,5.6-8.3,8.2c-2.3,2.6-4.2,4.9-5.5,7c-1.6,2.5-2.2,4.2-1.9,5.5l0.6,3l2.6-1.6
			c2.1-1.3,4.4-2.7,6.9-4.2c1.6-0.9,3.4-2.1,5.7-3.4l-0.9,3.7l-0.4,1.6c-0.9,3.7-1.8,7.5-2.6,11.2c-0.8,3.8-1.6,7.6-2.2,11.3
			c-0.7,3.7-1.2,7.1-1.5,10c-0.4,3.3-0.7,6.8-0.7,10.3c0,3.5,0.1,6.8,0.5,9.8c0.4,3.1,1,5.8,2,8c1.1,2.6,2.7,4.3,4.7,5l4.4,1.5
			l-1.7-4.3c-0.6-1.5-0.9-4-1-7.3c0-3.5,0.2-7.5,0.8-12.1c0.5-4.6,1.4-9.8,2.5-15.3c1.1-5.5,2.4-11.4,3.9-17.3
			c1.5-6,3.2-12.1,5.1-18.1c1.9-6.1,4-12.1,6.1-17.7l0-0.1l0-0.1c0.2-0.6,0.1-1.2-0.2-1.8c-0.5-1-1.6-1.2-1.9-1.3
			c-0.6-0.2-1.3-0.3-2-0.3C174.6,37,174.3,37,173.9,37L173.9,37z"/>
		<path class="st1" d="M202.1,123.6c-0.7,0-2-0.3-2.5-2.4c-0.4-1.9,2.9-6.5,3-6.5c0.9-1.2,2-2,3.1-2.3c1.6-0.4,2.8-0.6,3.6-0.6
			c0.3,0,1.4,0,2,0.8c0.5,0.8,0.2,1.6,0,2.1c0,0.1-0.1,0.1-0.1,0.2c0.2,1.3-1.1,2-2.2,2.6c-0.7,0.3-1.4,0.7-2.1,1.2
			c-0.3,0.2-0.9,1.2-1.4,1.9c-1.1,1.7-1.8,2.7-2.7,2.9C202.6,123.6,202.3,123.6,202.1,123.6L202.1,123.6z"/>
		<path class="st1" d="M209.3,112.9c2.1,0,0.8,1.6,0.9,2.1c0.2,1.1-1.9,1.4-3.9,2.9c-1,0.7-2.8,4.4-3.7,4.7c-0.2,0-0.3,0.1-0.5,0.1
			c-0.7,0-1.2-0.5-1.4-1.6c-0.2-1.1,1.9-4.5,2.8-5.7c0.8-1,1.6-1.7,2.5-1.9C207.6,113,208.7,112.9,209.3,112.9 M209.3,110.7
			c-1,0-2.2,0.2-3.9,0.7c-1.4,0.4-2.7,1.3-3.7,2.7c-0.4,0.5-3.7,5-3.2,7.4c0.6,3,2.9,3.3,3.5,3.3c0.3,0,0.7,0,1-0.1
			c1.2-0.3,2-1.4,3.3-3.4c0.4-0.6,1-1.5,1.2-1.7c0.6-0.4,1.3-0.8,1.9-1.1c1.1-0.6,2.9-1.5,2.8-3.4c0.2-0.6,0.7-1.9-0.2-3.1
			C211.6,111.2,210.6,110.7,209.3,110.7L209.3,110.7z"/>
	</g>
	<g>
		<g>
			<path class="st3" d="M187.9,141.7c-2.1-0.7-3.7-2.5-4.9-5.2c-1.1-2.6-1.8-5.7-2.3-9.3c-0.4-3.6-0.6-7.5-0.6-11.8
				c0-4.2,0.3-8.4,0.9-12.4c0.4-3.5,1-7.6,1.8-12.1c0.8-4.5,1.7-9.1,2.7-13.7c1-4.6,2-9.2,3.1-13.7l2.4-9.9c-4,2.4-7.4,4.3-10,5.9
				c-3.1,1.9-5.9,3.6-8.4,5.1l-1.3,0.8l-0.3-1.5c-0.2-1.2,0.4-3,2.1-5.7c1.5-2.4,3.7-5.2,6.6-8.3c2.8-3.1,6.2-6.4,10-9.9
				c3.8-3.4,8-6.7,12.3-9.9c0.6-0.3,1.2-0.4,2.2-0.6c0.5-0.1,1-0.1,1.5-0.1c0.4,0,0.8,0,1.1,0c0.8,0.1,1.6,0.2,2.2,0.4
				c0.5,0.1,1.1,0.4,1.4,0.9l0.2,0.4l-0.1,0.6c-2.7,7-5.2,14.3-7.5,21.8c-2.3,7.5-4.4,14.9-6.3,22.2c-1.8,7.3-3.5,14.4-4.8,21.2
				c-1.4,6.8-2.4,13.1-3.1,18.8c-0.7,5.7-1,10.7-0.9,15c0,4.2,0.5,7.4,1.3,9.4l0.9,2.2L187.9,141.7z"/>
			<path class="st1" d="M205.7,30.6c0.3,0,0.7,0,1,0c0.8,0.1,1.5,0.2,2,0.3c0.6,0.2,0.8,0.3,0.8,0.6c-2.7,7-5.2,14.3-7.5,21.8
				c-2.3,7.5-4.4,14.9-6.3,22.3c-1.8,7.3-3.4,14.4-4.8,21.3c-1.4,6.8-2.4,13.1-3.1,18.9c-0.7,5.7-1,10.8-0.9,15.1
				c0,4.3,0.5,7.6,1.4,9.8c-1.8-0.6-3.2-2.2-4.2-4.6c-1-2.5-1.8-5.5-2.2-9.1c-0.4-3.6-0.6-7.4-0.6-11.6c0-4.2,0.3-8.3,0.9-12.3
				c0.4-3.5,1-7.6,1.8-12.1c0.8-4.5,1.7-9,2.7-13.7c1-4.6,2-9.2,3.1-13.7c1.1-4.5,2.1-8.6,3-12.3c-5,2.9-9.1,5.3-12.2,7.2
				c-3.1,1.9-5.9,3.6-8.5,5.1c-0.2-0.9,0.5-2.5,2-4.9c1.5-2.4,3.7-5.1,6.4-8.2c2.8-3.1,6.1-6.4,9.9-9.8c3.8-3.4,7.9-6.7,12.2-9.8
				c0.3-0.2,0.9-0.3,1.7-0.4C204.8,30.6,205.3,30.6,205.7,30.6 M205.7,28.5c-0.5,0-1,0-1.6,0.1c-1.1,0.1-1.8,0.3-2.4,0.6l-0.1,0.1
				l-0.1,0.1c-4.4,3.2-8.6,6.5-12.4,9.9c-3.9,3.5-7.3,6.8-10.1,9.9c-2.8,3.2-5.1,6-6.7,8.5c-1.9,3-2.6,4.9-2.3,6.4l0.6,3l2.6-1.6
				c2.5-1.6,5.4-3.3,8.4-5.1c2.1-1.3,4.7-2.8,7.9-4.7l-1.5,6l-0.4,1.5c-1.1,4.5-2.1,9.1-3.1,13.7c-1,4.6-1.9,9.2-2.7,13.7
				c-0.8,4.5-1.4,8.6-1.8,12.2c-0.5,4-0.8,8.2-0.9,12.5c0,4.3,0.2,8.3,0.6,11.9c0.5,3.7,1.3,7,2.4,9.6c1.3,3,3.1,5,5.5,5.8l4.4,1.5
				l-1.7-4.3c-0.8-1.9-1.2-5-1.2-9.1c0-4.2,0.3-9.2,0.9-14.9c0.7-5.7,1.7-12,3-18.7c1.4-6.8,3-13.9,4.8-21.2
				c1.8-7.3,3.9-14.7,6.2-22.2c2.3-7.4,4.8-14.7,7.5-21.7l0-0.1l0-0.1c0.2-0.6,0.1-1.3-0.2-1.8c-0.5-0.9-1.4-1.2-2.1-1.4
				c-0.7-0.2-1.5-0.3-2.4-0.4C206.5,28.5,206.1,28.5,205.7,28.5L205.7,28.5z"/>
		</g>
		<g>
			<path class="st6" d="M49.8,197.3l1.8-3c1-1.4,2-2.6,3-3.7c1-1,2.2-2.1,3.4-3.2c4.2-3.4,8.7-6.1,13.5-8.2c4.8-2.1,10-3.9,15.5-5.3
				c0.6-0.2,1.3-0.3,2-0.5c2.1-1.8,4.5-3.3,7-4.5c0-0.2,0.1-0.3,0.1-0.5c-2,1.5-3.7,2.4-5.1,2.7c-0.6,0.2-1.1,0.2-1.5,0.2
				c-1.5,0-2-0.9-2.1-1.3c-0.5-1.7,1.4-3.1,2.8-4c1.6-1.1,3-1.7,4.2-2c0.5-0.1,0.9-0.2,1.4-0.2c4.4-6.1,4.7-9.2,4.3-10.8
				c-0.1-0.3-0.2-0.7-0.5-0.7c-0.4,0.1-1.5,0.7-5.5,6c-4.5,6.2-7.3,9.9-8.5,11.4c-3.7,4.4-6.7,6.8-9.3,7.5l0,0
				c-0.4,0.1-0.8,0.3-1.3,0.4c-0.5,0.1-1,0.2-1.4,0.2c-1.7,0-2.8-0.9-3.3-2.6c-0.3-0.9-0.3-2.6,1.1-6.6l-2.3,3
				c-4.7,6.2-8.4,9.5-11.3,10.3l-0.1,0c-0.1,0.1-0.2,0.1-0.4,0.2l-0.1,0l-0.3,0c-0.5,0-1-0.2-1.7-0.5c-0.6-0.3-1.4-0.8-1.7-1.6
				c-0.2-0.7-0.2-0.8,7.5-15.3c3.3-6.2,7-13.2,10.1-19.2c-0.2,0-0.4,0-0.5,0c-0.9,0-3.3,0-3.8-1.7c-0.2-0.8,0-1.4,0.2-1.7
				c0.4-0.6,1.1-1.1,2.2-1.3l5-1l7.9-14.6c1-2,2.5-4.7,4.5-8c-6.8,3-13.4,6.7-19.7,11.2c-0.6,0.4-1.1,0.7-1.5,0.8
				c-0.2,0.1-0.4,0.1-0.7,0.1c-0.5,0-1.7-0.2-2.2-1.9c-0.5-1.8,0.4-4.4,11.2-10.3c7.6-4.2,14.3-7,19.7-8.4c2.3-0.6,4.5-0.9,6.4-0.9
				c1,0,2.1,0.1,3,0.3c3.8,0.7,6.2,2.6,7.2,5.9c2,6.8-1.4,13.5-10,19.9c-6.5,4.8-13.7,8.3-21.4,10.3l-11.3,22.1
				c-1.1,2.2-2.7,4.9-4.3,7.4c1.4-1.6,3.2-3.9,5.5-6.7l8.6-11.6l0.2-0.1c0.5-0.3,1.3-0.6,2.2-0.9c0.2-0.1,0.5-0.1,0.7-0.1
				c0.5,0,1.7,0.2,2.2,1.8c0.3,0.9,0,2.8-3.7,9.9c-2.7,5.3-3.4,7.1-3.5,7.8c0.1,0,0.3,0,0.5,0l0,0c2.4-1.3,5-3.6,7.7-6.9l3.9-4.7
				l5.4-7.3c3.7-5,5-6.1,5.7-6.5c1-0.6,1.8-0.9,2.4-1.1c0.6-0.2,1.2-0.2,1.7-0.2c2,0,3.5,1.2,4.1,3.3c1,3.6-1.2,8.3-6.8,14.5
				c0.7,0.5,1.2,1.2,1.5,2c2-1.3,4.2-3.4,6.4-6.1l3.9-4.7l5.4-7.3c3.8-5.1,5.1-6.2,5.7-6.5c1-0.6,1.8-0.9,2.4-1.1
				c0.6-0.2,1.2-0.2,1.7-0.2c2,0,3.5,1.2,4.1,3.3c1,3.6-1.2,8.3-6.8,14.5c0.7,0.5,1.1,1.1,1.5,1.9c1.7-1.2,3.7-3.2,6-6.1l3.7-4.6
				l5.9-7.5c3-3.3,5.7-5.2,8.4-5.9c0.5-0.1,0.9-0.2,1.4-0.2c0.8,0,1.9,0.2,2.7,1.1c0.5-0.5,0.9-0.8,1.3-0.9c0.3-0.1,0.6-0.1,0.8-0.1
				c0.9,0,1.7,0.5,1.9,1.4c0.2,0.8,0.2,2.2-3.5,9.4c-2.4,4.7-3.1,6.6-3.3,7.4c0,0,0.2-0.1,0.3-0.1c0,0,0.1,0,0.1-0.1
				c2.2-1,4.9-3.6,8-7.6c3.6-4.5,6.8-9.8,9.5-15.6c4.2-8.9,8.1-15.8,11.6-20.5c5.1-6.8,7.2-8,8.4-8.3c0.4-0.1,0.8-0.2,1.2-0.2
				c1.5,0,2.5,0.9,3,2.4c0.5,1.8-0.3,4.7-2.6,9.1c-1.9,3.5-5.7,8.2-11.6,14.3c-0.3,0.3-0.7,0.7-1.2,1.2c0.2,0,0.4,0,0.5,0
				c0.9,0,1.7,0.2,2.5,0.7c1.2,0.7,1.9,1.7,2.3,2.9c0.4,1.5,0.5,3.2,0.1,5l0.7-0.9l5.9-7.5c3-3.3,5.7-5.2,8.4-5.9
				c0.5-0.1,0.9-0.2,1.4-0.2c0.8,0,1.9,0.2,2.7,1.1c0.5-0.5,0.9-0.8,1.3-0.9c0.3-0.1,0.6-0.1,0.8-0.1c0.9,0,1.7,0.5,1.9,1.4
				c0.2,0.8,0.2,2.2-3.5,9.4c-2.4,4.7-3.1,6.6-3.3,7.4c0,0,0.3-0.1,0.3-0.1c0,0,0.1,0,0.2-0.1c0.7-0.3,1.6-0.9,2.6-1.7
				c1.6-1.2,4-3.9,6.9-7.8c2.5-3.3,4.3-6.1,5.6-8.3c-0.2-0.5-0.4-0.8-0.4-1c-0.3-1,0.2-2.3,1.6-4.3c1.8-2.5,2.6-3,3.2-3.2
				c0.2-0.1,0.4-0.1,0.6-0.1c0.8,0,1.5,0.5,1.7,1.3c0.1,0.3,0.1,0.7,0.1,1.2c0.2,0,0.3,0,0.5,0c2.1,0,3.5,1.1,4.1,3
				c0.6,1.9-0.4,5-3.1,9.8c-2,3.5-2.8,5.1-3.2,6l0.6-0.2l0.3,0c0.6,0,1.2,0.3,1.5,1.2c0.1,0.4,0.1,0.8-0.1,1.2
				c-0.4,0.6-1.1,1-2.5,1.4c-0.5,0.1-1,0.2-1.4,0.2c-1.6,0-2.7-0.9-3.2-2.5c-0.5-1.7-0.1-4,1.1-6.9c0.7-1.7,1.9-3.9,3.5-6.5
				c0.4-0.6,0.7-1.1,0.9-1.5c-0.1,0.1-0.2,0.1-0.3,0.2c-1.1,0.6-1.3,0.8-1.3,0.8c-8.4,12.8-14.5,19.7-18.7,20.9
				c-0.3,0.1-0.8,0.3-1.5,0.5c-0.5,0.1-0.9,0.2-1.3,0.2c-1.5,0-2.5-0.8-3-2.3c-0.1-0.3-0.2-0.7-0.2-1.1l-0.8,1.1
				c-2,2.3-3.6,3.6-5.2,4c-0.5,0.1-1,0.2-1.5,0.2c-1.8,0-3.2-1.1-3.8-3.1c-0.1-0.4-0.2-0.7-0.2-1.1c-3.7,4.4-6.6,7.1-8.9,8.1
				c-0.8,0.5-1.8,0.9-2.7,1.2c-0.7,0.2-1.4,0.3-2,0.3c-1.7,0-3.9-0.7-4.9-4.1c-0.2-0.8-0.3-1.8-0.3-2.9c-1.6,2.2-2.8,3.9-3.7,4.9
				c-3.3,4-6.1,6.3-8.5,7c-0.3,0.1-0.8,0.3-1.5,0.5c-0.5,0.1-0.9,0.2-1.3,0.2c-1.5,0-2.5-0.8-3-2.3c-0.1-0.3-0.2-0.7-0.2-1.1
				l-0.8,1.1c-2,2.3-3.6,3.6-5.2,4c-0.5,0.1-1,0.2-1.5,0.2c-1.9,0-3.2-1.1-3.8-3.1c-0.1-0.4-0.2-0.7-0.2-1.1
				c-3.7,4.4-6.6,7.1-8.9,8.1c-0.2,1.1-0.6,2.3-1.1,3.7l0.7-0.1c4.2-0.4,8.1-0.7,11.7-0.9c3.6-0.2,6.8-0.4,9.6-0.5
				c2.8-0.1,4.9-0.2,6.3-0.3c4.2-0.2,8.5-0.3,12.8-0.3c4.2,0,8.6-0.2,12.9-0.4c4.3-0.2,8.6-0.6,12.9-1c4.2-0.5,8.5-1.2,12.7-2.1
				c3.8-0.8,8.1-2.2,13-4.2c4.8-1.9,10-5.1,15.4-9.4l1.3,1.6c-3.1,2.6-6.3,5-9.7,7.1c-3.4,2.1-7,3.9-10.8,5.5c-4,1.5-8,2.7-12.2,3.5
				c-4.1,0.8-8.3,1.4-12.6,1.8c-4.3,0.4-8.6,0.7-12.9,0.8c-4.3,0.2-8.6,0.4-12.9,0.6c-8.9,0.4-17.8,0.9-26.5,1.5
				c-4.6,0.3-9.2,0.8-13.9,1.3c-0.7,1.3-1.4,2.7-2.3,4.1c-4.5,7.7-8.7,12-12.6,13c-0.6,0.1-1.1,0.2-1.6,0.2c-1.7,0-2.9-0.9-3.4-2.6
				c-0.9-3.1,0.5-7.2,4.2-12.7c-2.4,0.3-4.7,0.6-7.1,1c-0.9,2.1-2.2,4.6-3.8,7.3c-4.5,7.7-8.7,12-12.6,13c-0.6,0.1-1.1,0.2-1.6,0.2
				c-1.7,0-2.9-0.9-3.4-2.6c-0.9-3.1,0.5-7.3,4.3-12.8c0.4-0.6,0.8-1.1,1.2-1.7c-3.2,1-6.5,2-9.8,3c-3.7,1.2-7.2,2.8-10.4,4.8
				c-2.2,1.5-4.4,3.2-6.4,5c-1.9,1.7-3.8,3.9-5.4,6.5L49.8,197.3z M89.2,177.6c-1.6,1.5-3,3.2-4.2,5.1c-3.7,5.6-4,8.5-3.6,9.9
				l0.5,1.1l-0.3-1c1.4-0.3,3.9-2.3,8-9.5c1.3-2.3,2.5-4.5,3.5-6.6C91.8,177,90.5,177.3,89.2,177.6z M111.1,174.1
				c-0.6,0.8-1.2,1.6-1.8,2.5c-3.7,5.6-4,8.5-3.6,9.9l0.3,0.1c1.4-0.3,3.9-2.3,8-9.5c0.7-1.2,1.4-2.5,2-3.7
				C114.3,173.7,112.7,173.9,111.1,174.1z M101.2,171c3.1-0.5,6.4-1,9.6-1.4c2.8-2.8,6-5.2,9.6-7c0-0.2,0.1-0.3,0.1-0.5
				c-2,1.5-3.7,2.4-5.1,2.8c-0.6,0.2-1.1,0.2-1.5,0.2c-1.5,0-2-0.9-2.1-1.3c-0.5-1.7,1.4-3.1,2.8-4c1.6-1.1,3-1.7,4.2-2
				c0.5-0.1,0.9-0.2,1.4-0.2c4.4-6.1,4.7-9.2,4.3-10.8c-0.1-0.3-0.2-0.7-0.5-0.7c-0.1,0-0.1,0-0.2,0c-0.2,0.1-1.3,0.6-5.3,6
				c-4.4,6.1-7.3,9.9-8.5,11.4c-3.4,4.1-6.3,6.5-8.7,7.3C101.2,170.9,101.2,171,101.2,171z M118.8,167.3c-0.9,0.5-1.7,1.1-2.5,1.7
				c0.6-0.1,1.3-0.1,1.9-0.2C118.4,168.3,118.6,167.8,118.8,167.3z M150.8,140c-0.5,0.1-2.2,1.2-6.5,7.7c-4.1,6.3-4.3,8.2-4.3,8.7
				c0.6-0.3,2.4-1.5,6.5-7.6c4.6-6.8,4.4-8.4,4.3-8.7l0-0.1C150.9,140,150.9,140,150.8,140z M171.4,140c-2.5,6.1-2.6,8.4-2.3,9.2
				c0.1,0.3,0.2,0.3,0.3,0.3c0.1,0,0.1,0,0.3,0c1.2-0.3,3.1-1.8,5.5-6.7C173.1,142.2,172,141.1,171.4,140z M199.2,127.2
				c-0.5,0.1-2.2,1.2-6.5,7.7c-4.1,6.4-4.3,8.2-4.3,8.7c0.7-0.3,2.4-1.6,6.5-7.6c4.6-6.8,4.4-8.4,4.3-8.7l0-0.1
				C199.3,127.2,199.3,127.2,199.2,127.2z M177.2,133.2c-0.1,0-0.2,0-0.3,0c-0.9,0.2-1.6,0.8-2.1,1.9c-0.6,1.1-0.7,2-0.5,2.9
				c0.2,0.6,0.6,1.4,2.1,1.6c1.5-3.2,1.5-4.9,1.2-5.7C177.5,133.2,177.3,133.2,177.2,133.2z M93.7,114.5c0.1,0.7-0.3,2.4-5.8,12.8
				l-5.4,9.9c4.1-1.5,8-3.4,11.7-5.6c5.4-3.2,9.1-6.6,10.9-10c1.5-2.7,2-4.9,1.5-6.5c-0.3-1-1.1-2.3-4.5-2.3c-1.5,0-3.5,0.3-5.7,0.9
				C95.7,113.9,94.7,114.2,93.7,114.5z M189.2,107.5c-1,1.1-2.7,3.6-5.9,8.9c-1.2,2-2.2,3.8-3.1,5.4c4.7-5.3,7.6-9.7,8.7-13.2
				C189,108.2,189.1,107.9,189.2,107.5z"/>
			<path class="st1" d="M189.8,103.6c1,0,1.7,0.5,2,1.6c0.4,1.5-0.4,4.3-2.5,8.3c-1.8,3.4-5.6,8.1-11.4,14.1c-0.8,0.8-2,2-3.6,3.6
				c-0.3,0.3-0.5,0.8-0.7,1.7c1-1.2,2.1-1.9,3.4-2.2c0.4-0.1,0.7-0.1,1-0.1c0.7,0,1.3,0.2,1.9,0.5c0.9,0.5,1.5,1.3,1.8,2.3
				c0.8,2.9,0,6.5-2.4,10.8c0,0,0,0,0,0.1c0.5-0.5,0.9-1.1,1.4-1.7l3.7-4.6l5.9-7.5c2.8-3.1,5.4-4.9,7.8-5.5
				c0.4-0.1,0.8-0.2,1.1-0.2c1.2,0,2.1,0.6,2.7,1.9c0.7-1.1,1.2-1.7,1.6-1.7c0.2-0.1,0.4-0.1,0.5-0.1c0.5,0,0.8,0.2,0.9,0.7
				c0.2,0.8-0.9,3.7-3.4,8.6c-2.5,5-3.7,7.8-3.5,8.5c0.1,0.3,0.4,0.5,0.8,0.5c0.2,0,0.4,0,0.6-0.1c0.1,0,0.3-0.1,0.4-0.1
				c0.1,0,0.2-0.1,0.3-0.1c0.8-0.3,1.7-1,2.8-1.8c1.7-1.3,4.1-4,7.1-8c2.7-3.5,4.7-6.5,6-8.9c-0.3-0.7-0.5-1.1-0.6-1.3
				c-0.2-0.6,0.3-1.8,1.5-3.4c1.2-1.7,2.1-2.6,2.6-2.8c0.1,0,0.2,0,0.4,0c0.4,0,0.6,0.2,0.7,0.5c0.1,0.4,0,1.2-0.3,2.3
				c0.7-0.2,1.3-0.3,1.9-0.3c1.6,0,2.7,0.8,3.1,2.3c0.5,1.6-0.5,4.6-3,9c-2.5,4.4-3.7,6.8-3.5,7.2c0.1,0.3,0.3,0.5,0.7,0.5
				c0.1,0,0.1,0,0.2,0l1.2-0.3c0.1,0,0.1,0,0.2,0c0.2,0,0.4,0.2,0.5,0.5c0.1,0.5-0.5,0.9-1.9,1.2c-0.4,0.1-0.8,0.2-1.1,0.2
				c-1.1,0-1.9-0.6-2.2-1.7c-0.4-1.5-0.1-3.5,1.1-6.1c0.7-1.7,1.9-3.8,3.4-6.3c1.3-2.1,1.9-3.2,1.9-3.4c-0.1-0.3-0.2-0.4-0.5-0.4
				c-0.1,0-0.2,0-0.3,0c-0.4,0.1-1,0.4-1.9,0.9c-0.9,0.5-1.5,0.9-1.6,1.1c-8.2,12.6-14.3,19.5-18.2,20.6c-0.4,0.2-0.9,0.3-1.5,0.5
				c-0.4,0.1-0.7,0.1-1,0.1c-1,0-1.7-0.5-2-1.5c-0.3-1.1-0.1-2.7,0.6-5l-3.4,4.7c-1.7,2.1-3.3,3.3-4.6,3.6c-0.4,0.1-0.8,0.2-1.2,0.2
				c-1.4,0-2.3-0.8-2.8-2.3c-0.3-1.1-0.4-2.3-0.2-3.8c-4.5,5.6-7.9,9-10.4,10.1c-0.8,0.5-1.7,0.9-2.5,1.1c-0.6,0.2-1.2,0.2-1.7,0.2
				c-2,0-3.3-1.1-3.9-3.3c-0.4-1.5-0.4-3.7,0.2-6.7c-2.8,4.1-4.8,6.8-6.1,8.3c-3.1,3.8-5.8,6-8,6.6c-0.4,0.2-0.9,0.3-1.5,0.5
				c-0.4,0.1-0.7,0.1-1,0.1c-1,0-1.7-0.5-2-1.5c-0.3-1.1-0.1-2.7,0.6-5l-3.4,4.7c-1.7,2.1-3.3,3.3-4.6,3.6c-0.4,0.1-0.8,0.2-1.2,0.2
				c-1.4,0-2.3-0.8-2.8-2.3c-0.3-1.1-0.4-2.3-0.2-3.8c-4.8,6-8.4,9.5-10.8,10.3c-0.2,1.5-0.8,3.4-1.9,5.6c0.8-0.1,1.7-0.2,2.5-0.2
				c4.2-0.4,8.1-0.7,11.7-0.9c3.6-0.2,6.8-0.4,9.6-0.5c2.8-0.1,4.9-0.2,6.4-0.3c4.2-0.2,8.5-0.3,12.8-0.3c4.3,0,8.6-0.2,12.9-0.4
				c4.3-0.2,8.6-0.6,12.9-1c4.3-0.5,8.6-1.2,12.8-2.1c3.8-0.8,8.2-2.2,13.1-4.2c4.9-2,10.1-5.2,15.7-9.5c-3,2.6-6.2,4.9-9.6,7
				c-3.3,2.1-6.9,3.9-10.6,5.4c-3.9,1.5-7.9,2.6-12,3.4c-4.1,0.8-8.2,1.4-12.5,1.7c-4.3,0.4-8.6,0.7-12.9,0.8
				c-4.3,0.2-8.6,0.4-12.9,0.6c-8.9,0.4-17.7,0.9-26.5,1.5c-4.8,0.4-9.7,0.8-14.5,1.4c-0.7,1.4-1.6,2.9-2.5,4.6
				c-4.3,7.4-8.3,11.6-12,12.5c-0.5,0.1-0.9,0.2-1.3,0.2c-1.3,0-2.1-0.6-2.4-1.9c-0.8-2.7,0.6-6.7,4.1-11.9c0.4-0.7,0.9-1.3,1.4-1.9
				c-3.4,0.4-6.8,0.9-10.1,1.4c-0.9,2.2-2.3,4.8-4,7.8c-4.3,7.4-8.3,11.6-12,12.5c-0.5,0.1-0.9,0.2-1.3,0.2c-1.3,0-2.1-0.6-2.4-1.9
				c-0.8-2.7,0.6-6.7,4.1-11.9c1-1.5,2.2-2.9,3.4-4.2c-0.7,0.2-1.4,0.4-2,0.6c-3.7,1.1-7.4,2.2-11.2,3.4c-3.8,1.2-7.3,2.8-10.6,4.9
				c-2.3,1.6-4.5,3.3-6.5,5.1c-2,1.8-3.9,4.1-5.6,6.8l1.8-3c0.9-1.3,1.9-2.4,2.9-3.5c1-1,2.2-2.1,3.4-3.2c4.1-3.3,8.5-6,13.3-8.1
				c4.7-2.1,9.9-3.8,15.4-5.2c0.7-0.2,1.5-0.4,2.2-0.5c2.2-1.9,4.7-3.5,7.3-4.8c0.3-0.8,0.4-1.5,0.2-2.2c-0.1-0.3-0.3-0.5-0.6-0.6
				c-2.4,1.9-4.3,3-5.7,3.3c-0.5,0.1-0.9,0.2-1.3,0.2c-0.6,0-0.9-0.2-1.1-0.6c-0.2-0.7,0.6-1.7,2.4-2.8c1.5-1,2.8-1.6,3.9-1.9
				c0.6-0.1,1.1-0.2,1.7-0.2c3.9-5.4,5.5-9.4,4.7-12.1c-0.3-1-0.8-1.4-1.5-1.4c-0.1,0-0.3,0-0.5,0.1c-0.9,0.2-2.9,2.4-5.9,6.4
				c-4.5,6.1-7.3,9.9-8.5,11.3c-3.5,4.2-6.4,6.6-8.7,7.1c0,0,0,0,0,0c-0.3,0.1-0.8,0.3-1.3,0.4c-0.4,0.1-0.8,0.2-1.1,0.2
				c-1.2,0-2-0.6-2.3-1.9c-0.6-1.9,1-6.5,4.6-13.9l-7.7,10c-4.5,5.9-8.1,9.2-10.7,9.9c0,0-0.1,0-0.1,0c0,0-0.1,0-0.1,0
				c-0.1,0.1-0.1,0.2-0.2,0.2c-0.1,0-0.1,0-0.2,0c-0.3,0-0.7-0.1-1.2-0.4c-0.7-0.3-1-0.6-1.1-0.9c-0.2-0.8,11.3-21.5,18.3-35.4
				c-0.9,0.1-1.7,0.1-2.3,0.1c-1.7,0-2.6-0.3-2.8-0.9c-0.2-0.8,0.3-1.4,1.5-1.7l5.5-1.1l8.1-15c1.3-2.5,3.3-6.1,6.1-10.7
				c-8,3.2-15.6,7.4-22.9,12.6c-0.5,0.3-0.9,0.5-1.2,0.6c-0.1,0-0.3,0.1-0.4,0.1c-0.6,0-1-0.4-1.2-1.2c-0.5-1.8,3-4.9,10.7-9.1
				c7.6-4.2,14.1-6.9,19.5-8.3c2.2-0.6,4.3-0.9,6.2-0.9c1,0,1.9,0.1,2.8,0.2c3.4,0.6,5.5,2.3,6.3,5.2c1.9,6.3-1.3,12.6-9.6,18.8
				c-6.5,4.9-13.7,8.3-21.5,10.3l-11.5,22.5c-2.2,4.5-6.9,11.4-7.9,13.2c1.1-0.6,2.1-1.2,2.9-2c1.3-1.2,4-4.3,8-9.4l8.5-11.5
				c0.4-0.3,1.1-0.5,1.9-0.7c0.2,0,0.3-0.1,0.4-0.1c0.6,0,1,0.4,1.2,1.1c0.3,0.9-0.9,4-3.6,9.1c-2.7,5.1-3.9,8.1-3.7,8.8
				c0.1,0.4,0.5,0.6,1.1,0.6c0.2,0,0.5,0,0.9-0.1c0,0,0.1-0.1,0.1-0.1c2.5-1.3,5.2-3.7,8-7.1l3.9-4.7l5.4-7.3
				c2.7-3.7,4.5-5.7,5.4-6.3c0.9-0.5,1.6-0.8,2.2-1c0.5-0.1,1-0.2,1.5-0.2c1.6,0,2.6,0.8,3.1,2.5c1,3.3-1.5,8.2-7.5,14.5
				c1.2,0.3,2,1.1,2.3,2.3c0.1,0.3,0.1,0.7,0.2,1.1c2.5-1.3,5.2-3.7,7.9-7.1l3.9-4.7l5.4-7.3c2.7-3.7,4.5-5.7,5.4-6.3
				c0.9-0.5,1.6-0.8,2.2-1c0.5-0.1,1-0.2,1.5-0.2c1.6,0,2.6,0.8,3.1,2.5c1,3.3-1.5,8.2-7.5,14.5c1.2,0.3,2,1.1,2.3,2.3
				c0.1,0.3,0.1,0.6,0.2,1c2.1-1,4.6-3.4,7.6-7.1l3.7-4.6l5.9-7.5c2.8-3.1,5.4-4.9,7.8-5.5c0.4-0.1,0.8-0.2,1.1-0.2
				c1.2,0,2.1,0.6,2.7,1.9c0.7-1.1,1.2-1.7,1.6-1.7c0.2-0.1,0.4-0.1,0.5-0.1c0.5,0,0.8,0.2,0.9,0.7c0.2,0.8-0.9,3.7-3.4,8.6
				c-2.5,5-3.7,7.8-3.5,8.5c0.1,0.3,0.4,0.5,0.8,0.5c0.2,0,0.4,0,0.6-0.1c0.1,0,0.3-0.1,0.4-0.1c0.1,0,0.2-0.1,0.2-0.1
				c2.3-1.1,5.1-3.7,8.4-7.9c3.6-4.6,6.9-9.9,9.7-15.8c4.2-8.9,8-15.7,11.5-20.4c3.6-4.9,6.2-7.5,7.8-7.9
				C189.2,103.6,189.5,103.6,189.8,103.6 M175.7,128.1c8-7.9,12.7-14.2,14.2-19.1c0.5-1.7,0.7-2.7,0.6-3.2c-0.1-0.2-0.2-0.3-0.4-0.3
				c0,0-0.1,0-0.1,0c-1.1,0.3-3.6,3.7-7.6,10.4C179.2,121.3,176.9,125.4,175.7,128.1 M80.2,139.1c5.1-1.7,10-3.9,14.5-6.6
				c5.6-3.4,9.3-6.8,11.3-10.4c1.6-3,2.2-5.4,1.6-7.3c-0.6-2.1-2.4-3.1-5.5-3.1c-1.6,0-3.6,0.3-6,0.9c-1,0.3-2.3,0.7-4,1.2
				c0.2,0.3,0.4,0.5,0.4,0.7c0.2,0.6-1.7,4.7-5.7,12.2L80.2,139.1 M188.3,144.7c0.1,0,0.2,0,0.4,0c1.4-0.3,3.8-3,7.1-8.1
				c3.4-5,4.9-8.2,4.5-9.6c-0.2-0.6-0.5-0.9-1-0.9c-0.1,0-0.2,0-0.4,0.1c-1.4,0.4-3.8,3.1-7.1,8.2c-3.3,5.1-4.8,8.3-4.4,9.6
				C187.6,144.5,187.9,144.7,188.3,144.7 M177.1,140.7c1.5-3.1,2.1-5.5,1.6-7.1c-0.3-0.9-0.8-1.4-1.5-1.4c-0.2,0-0.3,0-0.5,0.1
				c-1.2,0.3-2.1,1.1-2.8,2.4c-0.7,1.3-0.9,2.5-0.5,3.7C173.8,139.9,175.1,140.6,177.1,140.7 M169.3,150.6c0.2,0,0.3,0,0.5-0.1
				c2.2-0.6,4.5-3.4,6.7-8.6c-2.5-0.3-4-1.4-4.6-3.3c-0.2-0.7-0.2-1.6,0-2.8c-3.2,7.1-4.5,11.6-4,13.6
				C168.3,150.2,168.7,150.6,169.3,150.6 M139.9,157.5c0.1,0,0.2,0,0.4,0c1.4-0.3,3.8-3,7.1-8.1c3.4-5,4.9-8.2,4.5-9.6
				c-0.2-0.6-0.5-0.9-1-0.9c-0.1,0-0.2,0-0.4,0.1c-1.4,0.4-3.8,3.1-7.1,8.2c-3.3,5.1-4.8,8.3-4.4,9.6
				C139.2,157.3,139.5,157.5,139.9,157.5 M99.7,172.3c3.8-0.7,7.7-1.2,11.5-1.7c2.8-3,6.2-5.4,9.9-7.2c0.3-0.8,0.4-1.5,0.2-2.2
				c-0.1-0.3-0.3-0.5-0.6-0.6c-2.4,1.9-4.3,3-5.7,3.3c-0.5,0.1-0.9,0.2-1.3,0.2c-0.6,0-0.9-0.2-1.1-0.6c-0.2-0.7,0.6-1.7,2.4-2.8
				c1.5-1,2.8-1.6,3.9-1.9c0.6-0.1,1.1-0.2,1.7-0.2c3.9-5.4,5.5-9.4,4.7-12.1c-0.3-1-0.8-1.4-1.5-1.4c-0.1,0-0.3,0-0.5,0.1
				c-0.9,0.2-2.9,2.4-5.9,6.4c-4.5,6.1-7.3,9.9-8.5,11.3c-3.5,4.2-6.4,6.6-8.7,7.1c0,0-0.1,0-0.1,0
				C100.2,170.7,100,171.5,99.7,172.3 M113,170.4c2-0.2,4-0.4,5.9-0.6c0.8-1.7,1.4-3.3,1.9-4.8C117.9,166.4,115.3,168.3,113,170.4
				 M92.1,173.8c1.2-0.3,2.5-0.5,3.8-0.8c0.2-0.6,0.5-1.3,0.7-1.9C94.9,172,93.5,172.8,92.1,173.8 M105.7,187.7c0.1,0,0.3,0,0.5-0.1
				c2.3-0.6,5.2-3.9,8.7-10c1.1-1.9,2.1-3.8,2.9-5.5c-2.4,0.3-4.9,0.6-7.3,1c-0.7,0.9-1.5,1.9-2.1,2.9c-3.2,4.8-4.4,8.4-3.7,10.8
				C104.8,187.4,105.2,187.7,105.7,187.7 M81.4,193.9c0.1,0,0.3,0,0.5-0.1c2.3-0.6,5.2-3.9,8.7-10c1.8-3.1,3.2-5.9,4.3-8.5
				c-2.1,0.4-4.2,0.8-6.2,1.3c-1.7,1.6-3.2,3.5-4.6,5.5c-3.2,4.8-4.4,8.4-3.7,10.8C80.5,193.6,80.9,193.9,81.4,193.9 M233.1,149.9
				L233.1,149.9 M189.8,101.5C189.8,101.5,189.8,101.5,189.8,101.5c-0.5,0-0.9,0.1-1.4,0.2c-1.5,0.4-3.7,1.7-8.9,8.7
				c-3.6,4.8-7.5,11.7-11.7,20.7c-2.7,5.8-5.9,11-9.4,15.4c-2.3,3-4.2,4.8-5.5,5.9c0.5-1.1,1.2-2.5,2.1-4.4
				c3.9-7.6,3.9-9.1,3.6-10.2c-0.4-1.4-1.5-2.2-3-2.2c-0.3,0-0.7,0-1.1,0.1c-0.4,0.1-0.7,0.3-1.1,0.5c-0.8-0.5-1.7-0.8-2.7-0.8
				c-0.5,0-1.1,0.1-1.6,0.2c-2.9,0.7-5.8,2.7-8.9,6.2l0,0.1l0,0.1l-5.9,7.5l-3.7,4.6c-2,2.5-3.6,4.1-4.8,5.1
				c-0.1-0.1-0.2-0.3-0.3-0.4c5.4-6.1,7.4-10.9,6.3-14.7c-0.8-2.6-2.6-4.1-5.1-4.1c-0.6,0-1.3,0.1-2,0.3c-0.8,0.2-1.6,0.6-2.7,1.2
				c-0.9,0.5-2.2,1.7-6.1,6.8l-5.4,7.3l-3.8,4.7c-1.8,2.2-3.5,3.9-5.2,5.2c-0.1-0.2-0.2-0.3-0.4-0.5c5.4-6.1,7.4-10.9,6.3-14.7
				c-0.8-2.6-2.6-4.1-5.1-4.1c-0.6,0-1.3,0.1-2,0.3c-0.8,0.2-1.6,0.6-2.7,1.2c-0.9,0.5-2.2,1.7-6.1,6.8l-5.4,7.3l-3.8,4.7
				c-1.9,2.3-3.6,4-5.3,5.3c0.5-1.1,1.3-2.8,2.5-5c4.1-7.8,4.1-9.5,3.7-10.7c-0.5-1.6-1.7-2.6-3.2-2.6c-0.3,0-0.6,0-1,0.1
				c-1.1,0.3-1.9,0.6-2.5,1l-0.3,0.2l-0.2,0.3l-6,8.1l9.2-18c7.7-2.1,14.8-5.6,21.3-10.4c9-6.7,12.5-13.8,10.4-21
				c-0.7-2.5-2.7-5.7-8-6.7c-1-0.2-2.1-0.3-3.2-0.3c-2,0-4.3,0.3-6.7,0.9c-5.5,1.4-12.2,4.3-20,8.5c-9.3,5.1-12.6,8.3-11.7,11.5
				c0.5,1.7,1.7,2.7,3.2,2.7c0.3,0,0.6,0,0.9-0.1c0.6-0.1,1.2-0.5,1.9-1c5.3-3.8,10.8-7,16.5-9.7c-1.2,2.1-2.1,3.8-2.9,5.2
				l-7.6,14.1l-4.5,0.9c-1.4,0.3-2.3,0.9-2.9,1.8c-0.4,0.7-0.5,1.6-0.3,2.5c0.5,1.8,2.3,2.3,3.6,2.4c-2.9,5.7-6.3,12-9.3,17.7
				c-7.9,14.8-7.9,14.9-7.5,16.1c0.4,1.4,1.8,2,2.2,2.3c0.8,0.4,1.5,0.6,2.2,0.6c0.3,0,0.5,0,0.7-0.1c0.2,0,0.4-0.1,0.5-0.2
				c3-0.8,6.5-3.9,11-9.6c-0.1,0.9,0,1.6,0.2,2.1c0.4,1.2,1,2.2,1.9,2.7c0,0-0.1,0-0.1,0c-4.9,2.1-9.5,5-13.7,8.3l0,0l0,0
				c-1.2,1.1-2.4,2.2-3.5,3.3c-1.1,1.1-2.2,2.4-3.1,3.8l0,0.1l0,0.1l-1.8,3l3.6,2.3c1.6-2.5,3.4-4.7,5.3-6.3c1.9-1.7,4-3.4,6.3-4.9
				c3.1-1.9,6.5-3.5,10.1-4.6c2.3-0.7,4.6-1.4,6.9-2.1c-3.5,5.4-4.8,9.6-3.8,12.8c0.6,2.2,2.3,3.4,4.5,3.4c0.6,0,1.2-0.1,1.8-0.2
				c4.2-1.1,8.6-5.5,13.3-13.5c1.5-2.6,2.7-4.9,3.7-6.9c1.4-0.2,2.8-0.4,4.2-0.6c-3,4.8-4,8.6-3.1,11.6c0.6,2.2,2.3,3.4,4.5,3.4
				c0.6,0,1.2-0.1,1.8-0.2c4.2-1.1,8.6-5.5,13.3-13.5c0.8-1.3,1.4-2.5,2.1-3.7c4.5-0.5,8.9-0.9,13.3-1.2c8.7-0.6,17.6-1.2,26.5-1.5
				c4.4-0.2,8.7-0.4,12.9-0.6c4.3-0.2,8.7-0.5,13-0.9c4.3-0.4,8.5-1,12.7-1.8c4.2-0.8,8.3-2,12.3-3.5c3.9-1.6,7.6-3.4,11-5.6
				c3.4-2.1,6.7-4.5,9.8-7.2l-1.4-1.7l0-2.1h0v2.1l-1.3-1.6c-5.3,4.2-10.4,7.3-15.2,9.2c-4.8,1.9-9.1,3.3-12.8,4.1
				c-4.2,0.9-8.4,1.6-12.6,2.1c-4.2,0.5-8.5,0.8-12.8,1c-4.3,0.2-8.6,0.3-12.8,0.4c-4.3,0-8.6,0.1-12.8,0.3
				c-1.5,0.1-3.6,0.2-6.4,0.3c-2.8,0.1-6,0.3-9.6,0.5c-3.3,0.2-6.9,0.5-10.8,0.8c0.2-0.6,0.4-1.2,0.5-1.7c2-1.1,4.5-3.3,7.4-6.7
				c0.8,2,2.4,3.1,4.5,3.1c0.5,0,1.1-0.1,1.7-0.2c1.6-0.4,3.3-1.7,5.2-3.8c0.7,1.3,2,2.1,3.6,2.1c0.5,0,1-0.1,1.6-0.2
				c0.7-0.2,1.3-0.4,1.7-0.6c2.6-0.8,5.5-3.2,8.9-7.3c0.5-0.6,1.2-1.5,2.1-2.6c0,0.1,0.1,0.2,0.1,0.3c1.2,4.2,4.3,4.9,6,4.9
				c0.7,0,1.4-0.1,2.2-0.3c1-0.3,2-0.7,3-1.3c2.1-1,4.6-3.3,7.8-6.9c0.8,2,2.4,3.1,4.5,3.1c0.5,0,1.1-0.1,1.7-0.2
				c1.6-0.4,3.3-1.7,5.2-3.8c0.7,1.3,2,2.1,3.6,2.1c0.5,0,1-0.1,1.6-0.2c0.7-0.2,1.3-0.4,1.7-0.6c2.4-0.7,6.2-3.1,13.7-13.4
				c-0.7,2.2-0.9,4.1-0.4,5.7c0.6,2,2.1,3.2,4.2,3.2c0.5,0,1.1-0.1,1.7-0.2c1.2-0.3,2.5-0.8,3.2-1.9c0.3-0.6,0.4-1.3,0.2-2
				c-0.3-0.9-0.9-1.6-1.7-1.8c0.5-1,1.2-2.3,2.4-4.3c2.9-5.1,3.9-8.4,3.2-10.6c-0.7-2.2-2.3-3.6-4.6-3.8c0-0.2-0.1-0.3-0.1-0.5
				c-0.4-1.3-1.4-2.1-2.7-2.1c-0.3,0-0.6,0-0.9,0.1c-1.2,0.3-2.3,1.3-3.8,3.6c-1.7,2.4-2.2,3.9-1.8,5.2c0,0.1,0.1,0.3,0.2,0.6
				c-1.3,2.1-3,4.7-5.3,7.8c-2.9,3.8-5.1,6.4-6.7,7.6c-0.2,0.1-0.3,0.2-0.4,0.3c0.5-1.1,1.2-2.5,2.2-4.5c3.9-7.6,3.9-9.1,3.6-10.2
				c-0.4-1.4-1.5-2.2-3-2.2c-0.3,0-0.7,0-1.1,0.1c-0.4,0.1-0.7,0.3-1.1,0.5c-0.8-0.5-1.7-0.8-2.7-0.8c-0.5,0-1.1,0.1-1.6,0.2
				c-2.9,0.7-5.8,2.7-8.9,6.2l0,0.1l0,0.1l-4.4,5.7c-0.1-0.7-0.2-1.4-0.4-2c-0.4-1.5-1.4-2.7-2.8-3.6c-0.4-0.2-0.8-0.4-1.2-0.5
				c5.8-6,9.6-10.7,11.4-14.2c2.5-4.7,3.3-7.7,2.7-9.9C193.2,102.6,191.7,101.5,189.8,101.5L189.8,101.5L189.8,101.5z M94.7,115.3
				c0.8-0.2,1.4-0.4,2-0.6c2.2-0.6,4-0.8,5.5-0.8c3,0,3.3,1.1,3.5,1.6c0.4,1.3-0.1,3.2-1.4,5.7c-1.8,3.2-5.3,6.4-10.5,9.6
				c-2.8,1.7-5.8,3.2-8.8,4.5l4-7.3C93.1,119.7,94.4,116.7,94.7,115.3L94.7,115.3z M191.4,139.2c0.6-1,1.3-2.2,2.3-3.7
				c1.4-2.1,2.4-3.6,3.3-4.7c-0.6,1.1-1.5,2.6-2.8,4.6C193,137,192.1,138.2,191.4,139.2L191.4,139.2z M175.9,138.3
				c-0.4-0.2-0.4-0.4-0.5-0.6c-0.2-0.6,0-1.3,0.4-2.1c0.3-0.7,0.7-1,1-1.2C176.8,135.1,176.7,136.2,175.9,138.3L175.9,138.3z
				 M170.1,148.1c0.1-0.9,0.4-2.7,1.6-6c0.5,0.5,1.1,0.9,1.9,1.2C172.1,146.3,170.8,147.6,170.1,148.1L170.1,148.1z M143,152
				c0.6-1,1.3-2.2,2.3-3.7c1.4-2.1,2.4-3.6,3.3-4.7c-0.6,1.1-1.5,2.6-2.8,4.6C144.6,149.8,143.7,151,143,152L143,152z M115.4,158.1
				c1.1-1.5,2.4-3.3,3.9-5.3c2.2-3,3.5-4.4,4.1-5.1c0.1,1.3-0.5,4-4,8.9c-0.3,0.1-0.7,0.1-1,0.2C117.6,157,116.6,157.4,115.4,158.1
				L115.4,158.1z M91.1,164.2c1.1-1.5,2.4-3.3,3.9-5.3c2.2-3,3.5-4.4,4.1-5.1c0.1,1.3-0.5,4-4,8.9c-0.3,0.1-0.7,0.1-1,0.2
				C93.3,163.2,92.3,163.6,91.1,164.2L91.1,164.2z M105.8,169.2c1.5-1.3,3.1-2.9,4.9-5c0.1,0.5,0.7,1.7,2.3,2
				c-0.9,0.8-1.8,1.6-2.7,2.5C108.8,168.8,107.3,169,105.8,169.2L105.8,169.2z M83.3,173.8c1-1,2.1-2.1,3.2-3.5
				c0.1,0.5,0.7,1.7,2.3,2c0,0-0.1,0-0.1,0.1c-0.6,0.1-1.2,0.3-1.7,0.4C85.6,173.2,84.4,173.5,83.3,173.8L83.3,173.8z M111.6,175.1
				c0.8-0.1,1.6-0.2,2.4-0.3c-0.3,0.6-0.7,1.2-1,1.8c-3.2,5.5-5.3,7.7-6.4,8.5c0.1-1.4,0.8-3.8,3.6-8
				C110.6,176.5,111.1,175.8,111.6,175.1L111.6,175.1z M89.7,178.6c0.5-0.1,1-0.2,1.5-0.3c-0.7,1.5-1.6,3-2.5,4.5
				c-3.2,5.5-5.3,7.7-6.4,8.5c0.1-1.4,0.8-3.8,3.6-8C87,181.6,88.3,180,89.7,178.6L89.7,178.6z"/>
		</g>
		<g>
			<path class="st6" d="M81.9,153.4c-1.5,0-2.5-0.9-2.7-2.5c-0.2-1.3,0.5-2.6,1.9-3.7c1.2-0.9,2.4-1.5,3.7-1.6c0.2,0,0.3,0,0.5,0
				c1.6,0,2.7,1,2.9,2.7c0.1,0.9-0.2,2.3-2.1,3.6c-1.2,0.8-2.4,1.3-3.7,1.4C82.2,153.4,82,153.4,81.9,153.4z"/>
			<path class="st1" d="M85.2,146.7c1.1,0,1.7,0.6,1.8,1.8c0.1,0.9-0.4,1.8-1.6,2.6c-1,0.7-2.1,1.1-3.2,1.3c-0.1,0-0.2,0-0.3,0
				c-1,0-1.5-0.5-1.7-1.5c-0.1-0.9,0.4-1.9,1.5-2.8c1-0.8,2.1-1.3,3.2-1.4C85,146.7,85.1,146.7,85.2,146.7 M85.2,144.5
				c-0.2,0-0.4,0-0.6,0c-1.5,0.2-2.9,0.8-4.3,1.8c-2.2,1.7-2.4,3.5-2.3,4.7c0.3,2.1,1.7,3.4,3.8,3.4c0.2,0,0.4,0,0.6,0
				c1.4-0.2,2.9-0.7,4.2-1.6c2.4-1.6,2.7-3.4,2.5-4.6C88.9,145.9,87.4,144.5,85.2,144.5L85.2,144.5z"/>
		</g>
		<g>
			<path class="st7" d="M112,135.8c3-0.8,5.9-2.2,8.5-4.2c2.7-2,5.1-4.6,7.3-7.6c2.2-3,4.2-6.5,6-10.2c1-2.1,1.9-4.3,2.7-6.5
				c-1.8,1.7-3.8,3.1-5.9,4.1c-2.7,1.3-5.5,1.9-8.4,1.9c-1,0-1.9-0.1-2.9-0.2c-3.4-0.2-6.5-1.3-9.1-3.4c-2.6-2-4.7-4.6-6.3-7.8
				c-1.6-3.1-2.7-6.7-3.4-10.6c-0.7-3.9-0.9-7.9-0.7-12c0.2-4,1-8,2.1-11.9c1.2-3.9,2.8-7.4,5-10.6c2.2-3.1,4.9-5.8,8.1-7.8
				c3.2-2,7-3.2,11.2-3.4c0.6,0,1.1,0,1.7,0c4.6,0,8.5,1.2,11.5,3.4c3.4,2.5,6,6,7.8,10.2c1.7,4.2,2.7,9.1,2.9,14.6
				c0.2,5.5-0.2,11.1-1.3,16.9c-1.1,5.7-2.7,11.4-4.9,16.9c-2.2,5.5-4.9,10.6-8,14.9c-3.2,4.4-6.8,8-10.7,10.8
				c-4,2.8-8.4,4.3-13,4.4L112,135.8z M127,57.8c-0.6,0-1.2,0-1.8,0.1c-3.7,0.4-6.8,1.8-9.2,4.2c-2.5,2.5-4.4,5.5-5.6,9
				c-1.3,3.5-2,7.4-2.2,11.5c-0.1,4.1,0.2,8,1.1,11.6c0.9,3.6,2.3,6.7,4.1,9.3c1.8,2.5,3.9,3.9,6.6,4.4c0.7,0.1,1.4,0.1,2.1,0.1
				c3.7,0,7.2-1.4,10.4-4.2c3.9-3.4,6.8-8.8,8.7-16.3c0.4-4.1,0.5-8.2,0.1-12c-0.4-3.8-1.3-7.1-2.6-9.8c-1.3-2.7-3.1-4.8-5.3-6.2
				C131.6,58.4,129.5,57.8,127,57.8z"/>
			<path class="st1" d="M127.9,46.7c4.4,0,8,1.1,10.9,3.2c3.3,2.4,5.7,5.7,7.4,9.8c1.7,4.1,2.6,8.9,2.8,14.3
				c0.2,5.4-0.2,11-1.3,16.6c-1.1,5.7-2.7,11.3-4.8,16.7c-2.1,5.5-4.8,10.4-7.9,14.7c-3.1,4.3-6.6,7.8-10.5,10.5
				c-3.9,2.7-8,4.1-12.4,4.2c3.2-0.8,6.1-2.3,8.9-4.4c2.8-2.1,5.3-4.7,7.6-7.8c2.3-3.1,4.3-6.6,6.1-10.4c1.8-3.8,3.3-7.7,4.5-11.8
				c-2.6,3.7-5.6,6.4-9,8c-2.6,1.2-5.2,1.8-7.9,1.8c-0.9,0-1.8-0.1-2.8-0.2c-3.3-0.2-6.1-1.2-8.6-3.2c-2.5-1.9-4.5-4.4-6-7.4
				c-1.6-3-2.7-6.5-3.3-10.3c-0.7-3.8-0.9-7.7-0.6-11.7c0.2-4,0.9-7.9,2.1-11.7c1.1-3.8,2.7-7.2,4.8-10.3c2.1-3,4.7-5.5,7.8-7.5
				c3.1-2,6.6-3,10.6-3.2C126.9,46.7,127.4,46.7,127.9,46.7 M122.1,109.1c3.9,0,7.6-1.5,11.1-4.4c4.1-3.5,7.1-9.1,9-16.8
				c0.5-4.4,0.5-8.5,0.1-12.4c-0.4-3.9-1.3-7.3-2.7-10.2c-1.4-2.9-3.3-5.1-5.6-6.6c-1.9-1.3-4.3-1.9-6.9-1.9c-0.6,0-1.3,0-1.9,0.1
				c-4,0.4-7.2,1.9-9.8,4.5c-2.6,2.6-4.6,5.7-5.9,9.4c-1.3,3.7-2.1,7.6-2.2,11.8c-0.2,4.2,0.2,8.2,1.2,11.9c0.9,3.7,2.4,6.9,4.3,9.6
				c1.9,2.7,4.3,4.3,7.2,4.8C120.6,109.1,121.4,109.1,122.1,109.1 M127.9,44.6c-0.6,0-1.1,0-1.7,0c-4.3,0.2-8.3,1.4-11.6,3.5
				c-3.3,2.1-6.1,4.8-8.4,8.1c-2.2,3.2-3.9,6.9-5.1,10.9c-1.2,3.9-1.9,8-2.1,12.1c-0.3,4.1,0,8.2,0.7,12.2c0.7,4,1.9,7.7,3.5,10.9
				c1.7,3.3,3.9,6.1,6.6,8.2c2.8,2.2,6,3.4,9.7,3.6c1,0.1,2,0.2,3,0.2c3,0,6-0.7,8.8-2c1-0.5,2-1,2.9-1.7c-0.4,0.9-0.8,1.8-1.2,2.6
				c-1.7,3.7-3.7,7-5.9,10c-2.1,2.9-4.5,5.4-7.1,7.4c-2.5,1.9-5.3,3.3-8.2,4l0.6,4.2c4.8-0.1,9.4-1.6,13.6-4.6c4-2.8,7.7-6.6,11-11
				c3.2-4.4,5.9-9.5,8.1-15.2c2.2-5.6,3.8-11.3,4.9-17.1c1.1-5.8,1.5-11.6,1.3-17.1c-0.2-5.6-1.2-10.7-3-15
				c-1.8-4.5-4.5-8.1-8.1-10.7C136.8,45.8,132.7,44.6,127.9,44.6L127.9,44.6z M122.1,107c-0.7,0-1.3,0-2-0.1
				c-2.3-0.4-4.2-1.7-5.8-3.9c-1.8-2.5-3.1-5.4-3.9-8.9c-0.9-3.5-1.2-7.3-1.1-11.3c0.1-4,0.8-7.7,2.1-11.2c1.2-3.4,3-6.3,5.4-8.6
				c2.3-2.3,5.1-3.5,8.6-3.9c0.6-0.1,1.1-0.1,1.7-0.1c2.3,0,4.2,0.5,5.8,1.6c2,1.3,3.7,3.3,4.9,5.8c1.3,2.6,2.1,5.8,2.5,9.5
				c0.4,3.7,0.4,7.7-0.1,11.8c-1.8,7.2-4.6,12.4-8.3,15.6C128.8,105.7,125.6,107,122.1,107L122.1,107z"/>
		</g>
		<g>
			<path class="st6" d="M157.5,128.4c-1.7-0.6-3.1-2.1-4.1-4.4c-0.9-2.1-1.5-4.7-1.9-7.7c-0.4-2.9-0.5-6.2-0.5-9.7
				c0-3.5,0.3-6.9,0.7-10.2c0.3-2.9,0.8-6.2,1.5-9.9c0.7-3.7,1.4-7.5,2.2-11.2c0.8-3.8,1.7-7.5,2.6-11.2l1.9-7.7
				c-3.1,1.8-5.7,3.4-7.8,4.6c-2.5,1.5-4.8,2.9-6.9,4.2l-1.3,0.8l-0.3-1.5c-0.2-1,0.3-2.5,1.8-4.8c1.3-2,3.1-4.3,5.4-6.8
				c2.3-2.5,5.1-5.3,8.2-8.1c3.1-2.8,6.5-5.5,10.1-8.1c0.5-0.3,1.1-0.4,1.9-0.5c0.4,0,0.8-0.1,1.2-0.1c0.3,0,0.6,0,0.9,0
				c0.7,0.1,1.3,0.2,1.9,0.3c0.4,0.1,1,0.3,1.3,0.8l0.2,0.4l-0.1,0.6c-2.2,5.8-4.3,11.8-6.2,17.9c-1.9,6.1-3.6,12.2-5.1,18.2
				c-1.5,6-2.8,11.8-3.9,17.4c-1.1,5.5-2,10.7-2.5,15.4c-0.5,4.6-0.8,8.8-0.8,12.3c0,3.4,0.4,6,1.1,7.7l0.9,2.2L157.5,128.4z"/>
			<path class="st1" d="M172.1,37.3c0.3,0,0.6,0,0.8,0c0.6,0.1,1.2,0.2,1.7,0.3c0.5,0.1,0.7,0.3,0.6,0.5c-2.2,5.7-4.2,11.7-6.2,17.9
				c-1.9,6.2-3.6,12.2-5.1,18.2c-1.5,6-2.8,11.8-4,17.4c-1.1,5.6-2,10.8-2.5,15.5c-0.5,4.7-0.8,8.8-0.8,12.4c0,3.6,0.4,6.2,1.1,8
				c-1.5-0.5-2.6-1.8-3.5-3.8c-0.9-2-1.5-4.5-1.8-7.4c-0.4-2.9-0.5-6.1-0.5-9.5c0-3.4,0.3-6.8,0.7-10.1c0.3-2.9,0.8-6.2,1.5-9.9
				c0.7-3.7,1.4-7.4,2.2-11.2c0.8-3.8,1.7-7.5,2.6-11.2c0.9-3.7,1.7-7,2.4-10.1c-4.1,2.4-7.4,4.3-10,5.9c-2.5,1.5-4.8,2.9-6.9,4.2
				c-0.1-0.7,0.4-2.1,1.6-4c1.2-1.9,3-4.2,5.3-6.7c2.3-2.5,5-5.2,8.1-8c3.1-2.8,6.5-5.5,10-8c0.2-0.1,0.7-0.2,1.4-0.3
				C171.4,37.3,171.8,37.3,172.1,37.3 M172.1,35.2c-0.4,0-0.9,0-1.3,0.1c-1,0.1-1.6,0.3-2.1,0.5l-0.1,0.1l-0.1,0.1
				c-3.6,2.6-7,5.3-10.2,8.2c-3.2,2.8-6,5.6-8.3,8.2c-2.3,2.6-4.2,4.9-5.5,7c-1.6,2.5-2.2,4.2-1.9,5.5l0.6,3l2.6-1.6
				c2.1-1.3,4.4-2.7,6.9-4.2c1.6-0.9,3.4-2.1,5.7-3.4l-0.9,3.7l-0.4,1.6c-0.9,3.7-1.8,7.5-2.6,11.2c-0.8,3.8-1.6,7.6-2.2,11.3
				c-0.7,3.7-1.2,7.1-1.5,10c-0.4,3.3-0.7,6.8-0.7,10.3c0,3.5,0.1,6.8,0.5,9.8c0.4,3.1,1,5.8,2,8c1.1,2.6,2.7,4.3,4.7,5l4.4,1.5
				l-1.7-4.3c-0.6-1.5-0.9-4-1-7.3c0-3.5,0.2-7.5,0.8-12.1c0.5-4.6,1.4-9.8,2.5-15.3c1.1-5.5,2.4-11.4,3.9-17.3
				c1.5-6,3.2-12.1,5.1-18.1c1.9-6.1,4-12.1,6.1-17.7l0-0.1l0-0.1c0.2-0.6,0.1-1.2-0.2-1.8c-0.5-1-1.6-1.2-1.9-1.3
				c-0.6-0.2-1.3-0.3-2-0.3C172.8,35.2,172.5,35.2,172.1,35.2L172.1,35.2z"/>
		</g>
		<g>
			<path class="st6" d="M200.3,121.8c-0.7,0-2-0.3-2.5-2.4c-0.4-1.9,2.9-6.5,3-6.5c0.9-1.2,2-2,3.1-2.3c1.6-0.4,2.8-0.6,3.6-0.6
				c0.3,0,1.4,0,2,0.8c0.5,0.8,0.2,1.6,0,2.1c0,0.1-0.1,0.1-0.1,0.2c0.2,1.3-1.1,2-2.2,2.6c-0.7,0.3-1.4,0.7-2.1,1.2
				c-0.3,0.2-0.9,1.2-1.4,1.9c-1.1,1.7-1.8,2.7-2.7,2.9C200.8,121.8,200.5,121.8,200.3,121.8L200.3,121.8z"/>
			<path class="st1" d="M207.5,111.1c2.1,0,0.8,1.6,0.9,2.1c0.2,1.1-1.9,1.4-3.9,2.9c-1,0.7-2.8,4.4-3.7,4.7c-0.2,0-0.3,0.1-0.5,0.1
				c-0.7,0-1.2-0.5-1.4-1.6c-0.2-1.1,1.9-4.5,2.8-5.7c0.8-1,1.6-1.7,2.5-1.9C205.8,111.2,206.9,111.1,207.5,111.1 M207.5,108.9
				c-1,0-2.2,0.2-3.9,0.7c-1.4,0.4-2.7,1.3-3.7,2.7c-0.4,0.5-3.7,5-3.2,7.4c0.6,3,2.9,3.3,3.5,3.3c0.3,0,0.7,0,1-0.1
				c1.2-0.3,2-1.4,3.3-3.4c0.4-0.6,1-1.5,1.2-1.7c0.6-0.4,1.3-0.8,1.9-1.1c1.1-0.6,2.9-1.5,2.8-3.4c0.2-0.6,0.7-1.9-0.2-3.1
				C209.8,109.4,208.8,108.9,207.5,108.9L207.5,108.9z"/>
		</g>
	</g>
</g>
<g>
</g>
<g>
</g>
<g>
</g>
<g>
</g>
<g>
</g>
<g>
</g>
<g>
</g>
</svg>
